<?xml version="1.0" encoding="UTF-8"?>
<!DOCTYPE svg PUBLIC "-//W3C//DTD SVG 1.1//EN" "http://www.w3.org/Graphics/SVG/1.1/DTD/svg11.dtd">
<svg version="1.1" xmlns="http://www.w3.org/2000/svg" xmlns:xlink="http://www.w3.org/1999/xlink" x="0" y="0" width="212.599" height="99.213" viewBox="0, 0, 212.599, 99.213">
  <g id="Layer_1" transform="translate(-314.646, -389.764)">
    <path d="M333.522,430.778 C333.522,441.889 336.16,445.442 340.473,445.442 C344.785,445.442 347.423,441.889 347.423,430.778 C347.423,419.667 344.785,416.115 340.473,416.115 C336.16,416.115 333.522,419.667 333.522,430.778 M356.203,474.313 C356.203,471.521 354.934,470.001 350.215,470.001 L332.353,470.001 C329.919,472.335 328.802,475.987 328.802,478.221 C328.802,484.157 333.927,487.202 340.473,487.202 C348.845,487.202 356.203,482.483 356.203,474.313 M349.605,415.251 C357.573,417.282 362.85,422.254 362.85,430.778 C362.85,442.195 353.259,447.319 340.473,447.319 C337.225,447.319 334.181,447.015 331.492,446.304 C327.992,448.384 325.556,450.059 325.556,452.698 C325.556,455.083 327.026,456.149 329.818,456.149 L353.716,456.149 C361.276,456.149 367.772,458.838 367.772,467.311 C367.772,477.307 358.335,488.977 337.682,488.977 C322.004,488.977 314.646,484.967 314.646,479.996 C314.646,473.401 324.845,473.807 330.376,470.001 L327.94,470.001 C323.983,470.001 316.322,468.632 316.322,460.36 C316.322,454.474 319.669,450.415 329.565,445.747 C322.612,443.464 318.147,438.592 318.147,430.778 C318.147,419.31 327.686,414.237 340.473,414.237 C343.212,414.237 345.852,414.49 348.237,414.948 z" fill="#B2B3B5"/>
    <path d="M366.277,389.764 C366.277,389.764 367.715,398.791 363.043,405.286 C358.368,411.784 349.353,413.291 349.353,413.291 C349.353,413.291 347.913,404.266 352.586,397.768 C357.26,391.271 366.277,389.764 366.277,389.764" fill="#B2B3B5"/>
    <path d="M368.758,413.063 C368.758,413.063 365.267,415.414 360.72,415.854 C356.172,416.292 352.294,414.654 352.294,414.654 C352.294,414.654 355.785,412.303 360.332,411.862 C364.879,411.424 368.758,413.063 368.758,413.063" fill="#B2B3B5"/>
    <path d="M347.304,412.71 C347.304,412.71 343.556,410.8 340.962,407.038 C338.371,403.276 337.923,399.09 337.923,399.09 C337.923,399.09 341.673,401.002 344.265,404.763 C346.855,408.524 347.304,412.71 347.304,412.71" fill="#B2B3B5"/>
    <path d="M375.465,484.626 L376.872,484.626 C378.819,484.626 380.327,483.685 380.327,481.585 C380.327,479.484 378.819,478.543 376.872,478.543 L375.465,478.543 z M374.782,477.923 L377.048,477.923 C380.856,477.923 381.011,481.047 381.011,481.585 C381.011,482.122 380.856,485.247 377.048,485.247 L374.782,485.247 z" fill="#B2B3B5"/>
    <path d="M383.709,477.922 L384.392,477.922 L384.392,485.246 L383.709,485.246 z" fill="#B2B3B5"/>
    <path d="M388.188,481.15 L389.635,481.15 C391.073,481.15 391.353,480.354 391.353,479.846 C391.353,479.338 391.073,478.543 389.635,478.543 L388.188,478.543 z M387.504,477.922 L389.428,477.922 C390.008,477.922 392.036,477.922 392.036,479.846 C392.036,481.243 390.97,481.626 390.163,481.729 L392.294,485.247 L391.518,485.247 L389.46,481.77 L388.188,481.77 L388.188,485.247 L387.504,485.247 z" fill="#B2B3B5"/>
    <path d="M394.765,477.922 L399.244,477.922 L399.244,478.543 L395.448,478.543 L395.448,481.15 L399.006,481.15 L399.006,481.771 L395.448,481.771 L395.448,484.625 L399.41,484.625 L399.41,485.246 L394.765,485.246 z" fill="#B2B3B5"/>
    <path d="M407.968,484.098 C407.276,485.049 406.323,485.433 405.248,485.433 C403.013,485.433 401.461,483.819 401.461,481.584 C401.461,479.35 403.013,477.735 405.248,477.735 C406.241,477.735 407.131,478.067 407.772,478.883 L407.213,479.35 C406.758,478.666 405.983,478.356 405.248,478.356 C403.334,478.356 402.144,479.762 402.144,481.584 C402.144,483.405 403.334,484.812 405.248,484.812 C405.983,484.812 406.893,484.46 407.41,483.674 z" fill="#B2B3B5"/>
    <path d="M412.2,478.543 L409.697,478.543 L409.697,477.923 L415.387,477.923 L415.387,478.543 L412.883,478.543 L412.883,485.247 L412.2,485.247 z" fill="#B2B3B5"/>
    <path d="M421.867,484.626 L423.273,484.626 C425.219,484.626 426.729,483.685 426.729,481.585 C426.729,479.484 425.219,478.543 423.273,478.543 L421.867,478.543 z M421.184,477.923 L423.45,477.923 C427.257,477.923 427.413,481.047 427.413,481.585 C427.413,482.122 427.257,485.247 423.45,485.247 L421.184,485.247 z" fill="#B2B3B5"/>
    <path d="M430.097,477.922 L434.577,477.922 L434.577,478.543 L430.781,478.543 L430.781,481.15 L434.339,481.15 L434.339,481.771 L430.781,481.771 L430.781,484.625 L434.743,484.625 L434.743,485.246 L430.097,485.246 z" fill="#B2B3B5"/>
    <path d="M437.239,477.922 L437.922,477.922 L437.922,484.625 L441.336,484.625 L441.336,485.246 L437.239,485.246 z" fill="#B2B3B5"/>
    <path d="M443.611,477.922 L444.295,477.922 L444.295,485.246 L443.611,485.246 z" fill="#B2B3B5"/>
    <path d="M446.511,477.922 L447.244,477.922 L449.604,484.346 L451.983,477.922 L452.707,477.922 L449.924,485.246 L449.241,485.246 z" fill="#B2B3B5"/>
    <path d="M454.934,477.922 L459.413,477.922 L459.413,478.543 L455.617,478.543 L455.617,481.15 L459.175,481.15 L459.175,481.771 L455.617,481.771 L455.617,484.625 L459.579,484.625 L459.579,485.246 L454.934,485.246 z" fill="#B2B3B5"/>
    <path d="M462.759,481.15 L464.207,481.15 C465.645,481.15 465.924,480.354 465.924,479.846 C465.924,479.338 465.645,478.543 464.207,478.543 L462.759,478.543 z M462.075,477.922 L464,477.922 C464.579,477.922 466.607,477.922 466.607,479.846 C466.607,481.243 465.541,481.626 464.734,481.729 L466.865,485.247 L466.089,485.247 L464.03,481.77 L462.759,481.77 L462.759,485.247 L462.075,485.247 z" fill="#B2B3B5"/>
    <path d="M470.952,482.09 L468.263,477.922 L469.08,477.922 L471.294,481.398 L473.559,477.922 L474.324,477.922 L471.636,482.09 L471.636,485.246 L470.952,485.246 z" fill="#B2B3B5"/>
    <path d="M480.227,483.891 C480.589,484.5 481.178,484.812 481.903,484.812 C482.824,484.812 483.548,484.253 483.548,483.373 C483.548,481.326 479.772,482.526 479.772,479.743 C479.772,478.439 480.889,477.735 482.122,477.735 C482.917,477.735 483.621,478.004 484.117,478.657 L483.527,479.08 C483.186,478.605 482.731,478.356 482.099,478.356 C481.22,478.356 480.455,478.812 480.455,479.743 C480.455,481.946 484.231,480.622 484.231,483.373 C484.231,484.698 483.145,485.433 481.956,485.433 C480.993,485.433 480.144,485.121 479.575,484.325 z" fill="#B2B3B5"/>
    <path d="M486.857,477.922 L491.337,477.922 L491.337,478.543 L487.541,478.543 L487.541,481.15 L491.099,481.15 L491.099,481.771 L487.541,481.771 L487.541,484.625 L491.502,484.625 L491.502,485.246 L486.857,485.246 z" fill="#B2B3B5"/>
    <path d="M494.684,481.15 L496.131,481.15 C497.569,481.15 497.848,480.354 497.848,479.846 C497.848,479.338 497.569,478.543 496.131,478.543 L494.684,478.543 z M494,477.922 L495.924,477.922 C496.504,477.922 498.532,477.922 498.532,479.846 C498.532,481.243 497.465,481.626 496.659,481.729 L498.789,485.247 L498.014,485.247 L495.955,481.77 L494.684,481.77 L494.684,485.247 L494,485.247 z" fill="#B2B3B5"/>
    <path d="M500.311,477.922 L501.044,477.922 L503.405,484.346 L505.784,477.922 L506.508,477.922 L503.725,485.246 L503.04,485.246 z" fill="#B2B3B5"/>
    <path d="M508.734,477.922 L509.416,477.922 L509.416,485.246 L508.734,485.246 z" fill="#B2B3B5"/>
    <path d="M518.605,484.098 C517.912,485.049 516.961,485.433 515.885,485.433 C513.648,485.433 512.097,483.819 512.097,481.584 C512.097,479.35 513.648,477.735 515.885,477.735 C516.877,477.735 517.768,478.067 518.406,478.883 L517.849,479.35 C517.394,478.666 516.62,478.356 515.885,478.356 C513.971,478.356 512.781,479.762 512.781,481.584 C512.781,483.405 513.971,484.812 515.885,484.812 C516.62,484.812 517.528,484.46 518.044,483.674 z" fill="#B2B3B5"/>
    <path d="M520.981,477.922 L525.461,477.922 L525.461,478.543 L521.665,478.543 L521.665,481.15 L525.223,481.15 L525.223,481.771 L521.665,481.771 L521.665,484.625 L525.626,484.625 L525.626,485.246 L520.981,485.246 z" fill="#B2B3B5"/>
    <path d="M380.737,461.212 C380.737,460.561 380.786,460.073 380.606,459.764 C380.444,459.454 380.087,459.31 379.257,459.374 L379.257,462.025 L382.022,462.025 L382.022,464.741 L379.257,464.741 L379.257,466.514 C379.257,467.035 379.208,467.556 379.728,467.882 L379.728,470.354 L374.442,470.354 L374.442,467.882 C374.963,467.556 374.914,467.035 374.914,466.514 L374.914,460.253 C374.914,459.521 374.865,459.081 374.361,458.885 L374.361,456.413 L384.494,456.413 L384.494,461.212 z" fill="#B2B3B5"/>
    <path d="M389.828,466.53 C389.828,466.629 389.779,467.62 390.674,467.62 C391.569,467.62 391.519,466.629 391.519,466.53 L391.519,460.219 C391.519,460.122 391.569,459.145 390.674,459.145 C389.779,459.145 389.828,460.122 389.828,460.219 z M395.863,466.319 C395.863,469.768 393.748,470.63 390.674,470.63 C387.599,470.63 385.485,469.768 385.485,466.319 L385.485,460.446 C385.485,456.999 387.599,456.137 390.674,456.137 C393.748,456.137 395.863,456.999 395.863,460.446 z" fill="#B2B3B5"/>
    <path d="M401.533,466.53 C401.533,466.629 401.484,467.62 402.379,467.62 C403.273,467.62 403.224,466.629 403.224,466.53 L403.224,460.219 C403.224,460.122 403.273,459.145 402.379,459.145 C401.484,459.145 401.533,460.122 401.533,460.219 z M407.567,466.319 C407.567,469.768 405.453,470.63 402.379,470.63 C399.304,470.63 397.189,469.768 397.189,466.319 L397.189,460.446 C397.189,456.999 399.304,456.137 402.379,456.137 C405.453,456.137 407.567,456.999 407.567,460.446 z" fill="#B2B3B5"/>
    <path d="M413.715,467.409 L414.057,467.409 C414.999,467.409 415.293,467.067 415.293,466.059 L415.293,460.805 C415.293,459.796 414.999,459.455 414.057,459.455 L413.715,459.455 z M414.837,456.413 C416.025,456.413 417.391,456.43 418.383,457.194 C419.522,458.089 419.636,459.358 419.636,460.691 L419.636,465.913 C419.636,467.279 419.57,468.336 418.514,469.329 C417.521,470.272 416.284,470.353 414.968,470.353 L408.819,470.353 L408.819,467.882 C409.306,467.669 409.356,467.247 409.371,466.774 L409.371,459.991 C409.356,459.505 409.322,459.096 408.819,458.886 L408.819,456.413 z" fill="#B2B3B5"/>
    <path d="M432.427,460.626 C432.427,460.009 432.411,459.146 431.566,459.146 C431.013,459.146 430.719,459.552 430.719,460.073 C430.719,460.351 430.752,460.626 430.98,460.855 C431.224,461.114 431.841,461.31 432.199,461.407 C433.24,461.683 434.64,462.058 435.518,462.644 C436.023,462.985 436.397,463.392 436.592,463.978 C436.82,464.579 436.917,465.246 436.917,465.897 L436.917,465.962 C436.917,468.646 435.729,470.63 431.581,470.63 C429.809,470.63 427.938,470.288 426.523,469.167 L426.523,465.425 L430.768,465.425 C430.768,466.255 430.752,466.872 430.898,467.165 C431.045,467.441 431.354,467.62 431.679,467.62 C432.265,467.62 432.525,467.052 432.525,466.547 C432.525,465.116 431.63,465.002 430.426,464.71 C427.791,464.058 426.311,463.425 426.311,460.415 L426.311,460.105 C426.376,458.609 426.619,457.861 427.759,456.999 C428.686,456.3 430.035,456.138 431.337,456.138 C433.224,456.138 434.9,456.511 436.478,457.601 L436.478,460.887 L432.427,460.887 z" fill="#B2B3B5"/>
    <path d="M443.918,456.413 L448.96,456.413 L448.96,458.886 C448.375,459.211 448.423,459.731 448.423,460.253 L448.423,465.896 C448.39,467.377 448.276,468.548 447.089,469.589 C446.064,470.483 444.649,470.63 443.397,470.63 C442.144,470.63 440.729,470.483 439.704,469.589 C438.518,468.548 438.403,467.377 438.371,465.896 L438.371,460.253 C438.371,459.731 438.419,459.211 437.898,458.886 L437.898,456.413 L443.186,456.413 L443.186,458.886 C442.665,459.211 442.714,459.731 442.714,460.253 L442.714,466.612 C442.714,466.889 442.778,467.604 443.575,467.604 C444.373,467.604 444.438,466.889 444.438,466.612 L444.438,460.253 C444.422,459.731 444.47,459.211 443.918,458.886 z" fill="#B2B3B5"/>
    <path d="M454.992,463.407 L455.398,463.407 C456.683,463.407 456.635,462.676 456.635,461.374 C456.635,460.057 456.683,459.325 455.398,459.325 L454.992,459.325 z M450.648,460.253 C450.648,459.731 450.698,459.211 450.177,458.886 L450.177,456.413 L455.854,456.413 C457.042,456.413 458.636,456.397 459.612,457.145 C461.206,458.365 460.978,460.594 460.978,460.952 L460.978,462.057 C460.978,464.71 460.099,466.352 456.538,466.352 L454.992,466.352 C454.992,467.036 454.943,467.555 455.464,467.882 L455.464,470.353 L450.177,470.353 L450.177,467.882 C450.698,467.555 450.648,467.036 450.648,466.514 z" fill="#B2B3B5"/>
    <path d="M466.849,463.407 L467.255,463.407 C468.54,463.407 468.492,462.676 468.492,461.374 C468.492,460.057 468.54,459.325 467.255,459.325 L466.849,459.325 z M462.505,460.253 C462.505,459.731 462.554,459.211 462.034,458.886 L462.034,456.413 L467.71,456.413 C468.899,456.413 470.493,456.397 471.468,457.145 C473.063,458.365 472.835,460.594 472.835,460.952 L472.835,462.057 C472.835,464.71 471.956,466.352 468.394,466.352 L466.849,466.352 C466.849,467.036 466.8,467.555 467.321,467.882 L467.321,470.353 L462.034,470.353 L462.034,467.882 C462.554,467.555 462.505,467.036 462.505,466.514 z" fill="#B2B3B5"/>
    <path d="M473.751,470.353 L473.751,467.881 C474.272,467.555 474.224,467.036 474.224,466.514 L474.224,460.252 C474.224,459.731 474.272,459.21 473.751,458.885 L473.751,456.413 L479.039,456.413 L479.039,458.885 C478.519,459.21 478.565,459.731 478.565,460.252 L478.565,467.393 L478.989,467.393 C480.096,467.393 480.079,466.725 480.079,465.847 L480.079,463.586 L483.902,463.586 L483.902,470.353 z" fill="#B2B3B5"/>
    <path d="M485.6,460.253 C485.6,459.732 485.649,459.211 485.128,458.886 L485.128,456.413 L490.414,456.413 L490.414,458.886 C489.895,459.211 489.944,459.732 489.944,460.253 L489.944,466.515 C489.944,467.036 489.895,467.556 490.414,467.882 L490.414,470.354 L485.128,470.354 L485.128,467.882 C485.649,467.556 485.6,467.036 485.6,466.515 z" fill="#B2B3B5"/>
    <path d="M502.104,465.311 L502.104,470.353 L491.661,470.353 L491.661,467.881 C492.18,467.555 492.133,467.036 492.133,466.514 L492.133,460.252 C492.133,459.731 492.18,459.21 491.661,458.885 L491.661,456.413 L502.104,456.413 L502.104,461.13 L498.102,461.13 L498.102,460.707 C498.102,459.764 497.971,459.373 496.801,459.373 L496.54,459.373 L496.54,461.862 L499.29,461.862 L499.29,464.579 L496.54,464.579 L496.54,467.393 L496.801,467.393 C498.102,467.393 498.084,466.905 498.102,465.766 L498.102,465.311 z" fill="#B2B3B5"/>
    <path d="M508.039,462.139 L508.477,462.139 C509.422,462.139 509.713,461.651 509.713,460.674 C509.713,459.78 509.422,459.291 508.477,459.291 L508.039,459.291 z M508.039,466.514 C508.039,467.035 507.99,467.555 508.51,467.881 L508.51,470.353 L503.223,470.353 L503.223,467.881 C503.744,467.555 503.695,467.035 503.695,466.514 L503.695,460.252 C503.695,459.731 503.744,459.21 503.223,458.885 L503.223,456.412 L509.258,456.412 C510.332,456.412 511.682,456.397 512.625,456.966 C513.764,457.633 514.154,458.821 514.154,460.088 C514.154,461.618 513.697,462.952 512.072,463.358 L512.072,463.391 C513.439,463.716 513.894,464.302 513.894,465.717 L513.894,466.514 C513.894,466.986 513.894,467.668 514.432,467.881 L514.432,470.353 L509.764,470.353 C509.584,469.588 509.469,468.938 509.518,466.612 C509.518,465.506 509.404,464.952 508.217,464.92 L508.039,464.92 z" fill="#B2B3B5"/>
    <path d="M521.662,460.626 C521.662,460.009 521.646,459.146 520.801,459.146 C520.248,459.146 519.955,459.552 519.955,460.073 C519.955,460.351 519.986,460.626 520.215,460.855 C520.459,461.114 521.076,461.31 521.433,461.407 C522.475,461.683 523.873,462.058 524.754,462.644 C525.258,462.985 525.633,463.392 525.826,463.978 C526.055,464.579 526.152,465.246 526.152,465.897 L526.152,465.962 C526.152,468.646 524.965,470.63 520.816,470.63 C519.043,470.63 517.172,470.288 515.758,469.167 L515.758,465.425 L520.004,465.425 C520.004,466.255 519.986,466.872 520.135,467.165 C520.281,467.441 520.59,467.62 520.914,467.62 C521.5,467.62 521.76,467.052 521.76,466.547 C521.76,465.116 520.865,465.002 519.662,464.71 C517.025,464.058 515.547,463.425 515.547,460.415 L515.547,460.105 C515.611,458.609 515.855,457.861 516.992,456.999 C517.922,456.3 519.271,456.138 520.572,456.138 C522.461,456.138 524.137,456.511 525.713,457.601 L525.713,460.887 L521.662,460.887 z" fill="#B2B3B5"/>
    <path d="M395.519,432.975 L386.282,432.975 L386.282,432.292 C386.282,430.926 386.569,428.303 384.449,428.303 C382.651,428.303 382.507,429.993 382.507,431.322 L382.507,445.016 C382.507,445.339 382.651,447.029 384.449,447.029 C386.569,447.029 386.282,444.405 386.282,443.003 L386.282,441.637 L384.627,441.637 L384.627,435.635 L395.519,435.635 L395.519,450.335 C392.499,453.067 387.935,453.678 384.017,453.678 C381.249,453.678 378.086,453.463 375.894,451.629 C373.054,449.221 372.911,446.418 372.911,443.038 L372.911,431.322 C372.911,428.59 373.234,425.93 375.462,424.061 C377.691,422.157 380.747,421.653 383.585,421.653 C387.79,421.653 392.14,422.623 395.519,425.211 z" fill="#B2B3B5"/>
    <path d="M408.731,434.917 L409.702,434.917 C411.786,434.917 412.433,433.838 412.433,431.682 C412.433,429.705 411.786,428.626 409.702,428.626 L408.731,428.626 z M408.731,444.585 C408.731,445.735 408.623,446.886 409.773,447.605 L409.773,453.067 L398.091,453.067 L398.091,447.605 C399.242,446.886 399.133,445.735 399.133,444.585 L399.133,430.747 C399.133,429.597 399.242,428.446 398.091,427.728 L398.091,422.265 L411.426,422.265 C413.798,422.265 416.782,422.229 418.867,423.486 C421.382,424.96 422.245,427.585 422.245,430.388 C422.245,433.767 421.239,436.714 417.644,437.612 L417.644,437.685 C420.664,438.403 421.67,439.696 421.67,442.823 L421.67,444.585 C421.67,445.627 421.67,447.138 422.856,447.605 L422.856,453.067 L412.541,453.067 C412.145,451.378 411.893,449.94 412.002,444.8 C412.002,442.356 411.75,441.135 409.127,441.062 L408.731,441.062 z" fill="#B2B3B5"/>
    <path d="M448.54,441.924 L448.54,453.067 L425.464,453.067 L425.464,447.604 C426.614,446.885 426.507,445.735 426.507,444.584 L426.507,430.746 C426.507,429.596 426.614,428.445 425.464,427.727 L425.464,422.264 L448.54,422.264 L448.54,432.687 L439.698,432.687 L439.698,431.752 C439.698,429.668 439.41,428.805 436.822,428.805 L436.247,428.805 L436.247,434.305 L442.321,434.305 L442.321,440.307 L436.247,440.307 L436.247,446.526 L436.822,446.526 C439.698,446.526 439.662,445.447 439.698,442.932 L439.698,441.924 z" fill="#B2B3B5"/>
    <path d="M473.962,441.924 L473.962,453.067 L450.886,453.067 L450.886,447.604 C452.036,446.885 451.929,445.735 451.929,444.584 L451.929,430.746 C451.929,429.596 452.036,428.445 450.886,427.727 L450.886,422.264 L473.962,422.264 L473.962,432.687 L465.119,432.687 L465.119,431.752 C465.119,429.668 464.832,428.805 462.244,428.805 L461.669,428.805 L461.669,434.305 L467.743,434.305 L467.743,440.307 L461.669,440.307 L461.669,446.526 L462.244,446.526 C465.119,446.526 465.084,445.447 465.119,442.932 L465.119,441.924 z" fill="#B2B3B5"/>
    <path d="M492.26,436.174 L492.33,436.174 L492.33,430.746 C492.33,429.596 492.44,428.445 491.289,427.727 L491.289,422.264 L501.137,422.264 L501.137,427.727 C499.987,428.445 500.094,429.596 500.094,430.746 L500.094,453.067 L490.785,453.067 L485.071,439.229 L484.999,439.229 L484.999,444.584 C484.999,445.735 484.891,446.885 486.041,447.604 L486.041,453.067 L476.481,453.067 L476.481,447.604 C477.63,446.885 477.524,445.735 477.524,444.584 L477.524,430.746 C477.524,429.596 477.63,428.445 476.481,427.727 L476.481,422.264 L486.905,422.264 z" fill="#B2B3B5"/>
    <path d="M517.324,431.573 C517.324,430.208 517.289,428.303 515.418,428.303 C514.199,428.303 513.551,429.202 513.551,430.351 C513.551,430.963 513.623,431.573 514.125,432.077 C514.666,432.651 516.031,433.083 516.82,433.298 C519.121,433.91 522.211,434.736 524.152,436.031 C525.267,436.786 526.094,437.684 526.525,438.977 C527.027,440.307 527.244,441.782 527.244,443.219 L527.244,443.362 C527.244,449.294 524.619,453.678 515.457,453.678 C511.537,453.678 507.404,452.924 504.277,450.444 L504.277,442.177 L513.658,442.177 C513.658,444.01 513.623,445.376 513.945,446.022 C514.267,446.634 514.951,447.029 515.672,447.029 C516.965,447.029 517.541,445.77 517.541,444.657 C517.541,441.494 515.562,441.243 512.902,440.594 C507.08,439.157 503.808,437.757 503.808,431.106 L503.808,430.423 C503.955,427.117 504.492,425.464 507.008,423.558 C509.056,422.012 512.041,421.653 514.916,421.653 C519.086,421.653 522.787,422.479 526.275,424.887 L526.275,432.148 L517.324,432.148 z" fill="#B2B3B5"/>
    <path d="M374.782,474.825 C374.427,474.825 374.141,474.535 374.141,474.18 C374.141,473.825 374.427,473.539 374.782,473.539 L525.461,473.539 C525.814,473.539 526.101,473.825 526.101,474.18 C526.101,474.535 525.814,474.825 525.461,474.825 z" fill="#B2B3B5"/>
  </g>
</svg>
