<?xml version="1.0" encoding="UTF-8"?>
<!DOCTYPE svg PUBLIC "-//W3C//DTD SVG 1.1//EN" "http://www.w3.org/Graphics/SVG/1.1/DTD/svg11.dtd">
<svg version="1.1" xmlns="http://www.w3.org/2000/svg" xmlns:xlink="http://www.w3.org/1999/xlink" x="0" y="0" width="197.782" height="55.623" viewBox="0, 0, 197.782, 55.623">
  <g id="Layer_1" transform="translate(-525.439, -411.558)">
    <path d="M542.547,421.747 L542.586,420.993 L542.348,420.993 L542.072,421.747 L538.908,430.923 L541.834,430.923 z M531.156,441.364 L541.715,412.292 L546.936,412.292 L545.156,441.364 L541.004,441.364 L541.44,435.431 L537.326,435.431 L535.309,441.364 z" fill="#B2B3B5"/>
    <path d="M564.654,412.292 L559.75,435.39 C559.433,436.577 558.959,437.646 558.367,438.554 C557.773,439.345 557.101,440.099 556.191,440.69 C555.242,441.364 554.095,441.681 552.711,441.681 C551.326,441.681 550.299,441.364 549.586,440.69 C548.914,440.099 548.558,439.345 548.4,438.554 C548.123,437.646 548.123,436.618 548.359,435.39 L553.263,412.292 L557.535,412.292 L552.631,435.39 C552.433,436.144 552.513,436.776 552.83,437.21 C552.988,437.409 553.224,437.526 553.58,437.526 C554.332,437.526 554.806,437.052 555.084,436.46 C555.203,436.222 555.361,435.864 555.478,435.39 L560.383,412.292 z" fill="#B2B3B5"/>
    <path d="M564.82,416.684 L565.769,412.291 L578.109,412.291 L577.16,416.684 L573.127,416.684 L567.906,441.364 L563.634,441.364 L568.855,416.684 z" fill="#B2B3B5"/>
    <path d="M584.94,418.266 C585.098,417.475 585.02,416.879 584.742,416.446 C584.585,416.246 584.307,416.129 583.952,416.129 C583.2,416.129 582.725,416.684 582.45,417.196 C582.292,417.512 582.172,417.87 582.091,418.266 L578.453,435.389 C578.255,436.143 578.336,436.776 578.653,437.209 C578.811,437.409 579.047,437.526 579.403,437.526 C580.155,437.526 580.629,437.051 580.906,436.459 C581.026,436.221 581.184,435.864 581.301,435.389 z M585.573,435.389 C585.255,436.577 584.781,437.645 584.19,438.553 C583.596,439.344 582.924,440.098 582.014,440.69 C581.065,441.364 579.919,441.68 578.534,441.68 C577.148,441.68 576.122,441.364 575.409,440.69 C574.737,440.098 574.38,439.344 574.223,438.553 C573.945,437.645 573.945,436.618 574.182,435.389 L577.82,418.266 C578.098,417.118 578.534,416.088 579.167,415.139 C579.76,414.348 580.393,413.557 581.301,412.965 C582.211,412.371 583.398,411.975 584.823,411.975 C586.247,411.975 587.234,412.371 587.906,412.965 C588.578,413.557 588.975,414.348 589.133,415.139 C589.411,416.01 589.411,417.037 589.211,418.266 z" fill="#B2B3B5"/>
    <path d="M599.031,420.085 C599.23,419.136 599.426,418.067 599.308,417.237 C599.189,416.446 598.873,415.894 598.201,415.894 C597.093,415.931 596.5,417.079 596.144,418.778 C595.945,419.769 596.103,420.798 596.541,421.905 C596.974,423.013 597.49,424.157 598.082,425.386 C598.834,426.847 599.426,428.351 599.9,429.815 C600.338,431.276 600.533,432.78 600.179,434.362 C599.742,436.302 599.109,438.079 597.885,439.466 C596.658,440.849 595.076,441.681 592.703,441.681 C589.974,441.681 588.631,440.651 588.115,439.069 C587.523,437.487 587.84,435.431 588.273,433.216 L592.545,432.821 C592.269,434.046 592.07,435.273 592.189,436.181 C592.306,437.13 592.623,437.763 593.535,437.763 C594.801,437.763 595.511,436.419 595.945,434.562 C596.144,433.612 595.945,432.505 595.511,431.356 C595.392,431.081 595.275,430.765 595.154,430.485 C595.037,430.21 594.918,429.894 594.801,429.616 C594.521,429.024 594.205,428.392 593.888,427.718 C593.572,427.046 593.256,426.372 592.939,425.622 C592.269,424.12 591.912,422.616 591.795,421.114 C591.674,420.36 591.795,419.569 591.953,418.778 C592.269,417.196 592.98,415.497 594.205,414.19 C595.353,412.925 596.935,412.017 598.951,411.976 C601.603,411.939 602.828,413.005 603.344,414.548 C603.818,416.13 603.66,418.067 603.302,419.69 z" fill="#B2B3B5"/>
    <path d="M609.065,425.385 C610.37,425.385 611.279,425.147 611.872,424.473 C612.503,423.84 612.82,422.774 613.177,421.151 C613.534,419.531 613.653,418.424 613.336,417.67 C613.02,417 612.229,416.643 610.922,416.643 z M607.599,412.291 L611.872,412.291 C613.732,412.291 615.473,412.729 616.617,414.112 C617.766,415.496 618.279,417.67 617.529,420.992 C616.776,424.315 615.393,426.451 613.692,427.836 C611.992,429.219 610.013,429.735 608.154,429.735 L605.702,441.364 L601.43,441.364 z" fill="#B2B3B5"/>
    <path d="M621.232,412.292 L631.002,412.292 L630.052,416.685 L624.554,416.685 L622.933,424.315 L626.888,424.315 L625.898,428.983 L621.943,428.983 L620.244,436.972 L625.74,436.972 L624.832,441.364 L615.062,441.364 z" fill="#B2B3B5"/>
    <path d="M633.322,412.292 L643.09,412.292 L642.14,416.685 L636.644,416.685 L635.021,424.315 L638.976,424.315 L637.99,428.983 L634.035,428.983 L632.332,436.972 L637.832,436.972 L636.92,441.364 L627.152,441.364 z" fill="#B2B3B5"/>
    <path d="M644.383,437.092 C645.848,437.092 646.717,436.934 647.467,435.51 C648.141,434.203 648.696,431.871 649.09,429.973 C649.287,429.061 649.487,427.994 649.762,426.809 C649.998,425.621 650.237,424.553 650.436,423.604 C650.83,421.746 651.305,419.531 651.147,418.108 C651.028,416.721 650.237,416.563 648.774,416.563 z M639.24,441.363 L645.41,412.291 L648.774,412.291 C652.729,412.291 654.627,413.082 655.377,415.297 C656.01,417.512 655.418,421.113 654.192,426.846 C652.967,432.541 652.055,436.143 650.473,438.358 C648.854,440.572 646.559,441.363 642.604,441.363 z" fill="#B2B3B5"/>
    <path d="M530.932,456.633 C531.024,456.17 531.123,455.654 531.063,455.244 C531.004,454.863 530.852,454.588 530.524,454.588 C529.983,454.608 529.692,455.164 529.522,455.996 C529.422,456.483 529.5,456.985 529.711,457.518 C529.926,458.065 530.174,458.625 530.465,459.217 C530.834,459.938 531.123,460.676 531.354,461.387 C531.569,462.1 531.662,462.834 531.491,463.606 C531.274,464.551 530.971,465.422 530.371,466.097 C529.768,466.772 528.998,467.18 527.84,467.18 C526.506,467.18 525.85,466.676 525.598,465.903 C525.309,465.131 525.461,464.121 525.676,463.049 L527.76,462.852 C527.629,463.449 527.53,464.051 527.59,464.496 C527.649,464.953 527.801,465.266 528.246,465.266 C528.862,465.266 529.211,464.61 529.422,463.699 C529.522,463.238 529.422,462.697 529.211,462.141 C529.153,462.002 529.094,461.85 529.037,461.709 C528.977,461.578 528.92,461.428 528.862,461.287 C528.725,460.998 528.573,460.694 528.42,460.362 C528.264,460.031 528.106,459.705 527.952,459.336 C527.629,458.608 527.455,457.87 527.395,457.133 C527.336,456.764 527.395,456.383 527.473,455.996 C527.629,455.223 527.971,454.391 528.573,453.757 C529.135,453.141 529.909,452.692 530.893,452.674 C532.184,452.651 532.786,453.178 533.034,453.932 C533.266,454.705 533.19,455.654 533.014,456.445 z" fill="#B2B3B5"/>
    <path d="M537.373,457.448 L537.391,457.08 L537.279,457.08 L537.141,457.448 L535.598,461.93 L537.027,461.93 z M531.809,467.022 L536.965,452.833 L539.518,452.833 L538.648,467.022 L536.619,467.022 L536.83,464.122 L534.82,464.122 L533.84,467.022 z" fill="#B2B3B5"/>
    <path d="M543.631,467.022 L544.194,458.106 L544.235,457.501 L544.115,457.501 L542.108,467.022 L540.174,467.022 L543.192,452.833 L545.736,452.833 L545.584,459.319 L545.526,460.069 L545.565,460.069 L545.817,459.319 L548.44,452.833 L550.99,452.833 L547.979,467.022 L546.047,467.022 L548.057,457.501 L547.944,457.501 L547.744,458.106 L544.52,467.022 z" fill="#B2B3B5"/>
    <path d="M553.283,452.833 L558.051,452.833 L557.594,454.972 L554.906,454.972 L554.115,458.702 L556.047,458.702 L555.566,460.981 L553.633,460.981 L552.803,464.884 L555.486,464.884 L555.039,467.022 L550.271,467.022 z" fill="#B2B3B5"/>
    <path d="M562.664,464.936 C563.383,464.936 563.805,464.86 564.174,464.163 C564.496,463.53 564.769,462.389 564.965,461.467 C565.059,461.018 565.156,460.497 565.287,459.916 C565.406,459.336 565.521,458.819 565.621,458.346 C565.814,457.448 566.045,456.366 565.967,455.672 C565.908,454.995 565.521,454.918 564.809,454.918 z M560.154,467.022 L563.17,452.832 L564.809,452.832 C566.738,452.832 567.668,453.219 568.035,454.295 C568.34,455.379 568.053,457.133 567.457,459.938 C566.857,462.721 566.412,464.475 565.639,465.559 C564.848,466.635 563.725,467.022 561.795,467.022 z" fill="#B2B3B5"/>
    <path d="M572.82,457.448 L572.838,457.08 L572.722,457.08 L572.584,457.448 L571.043,461.93 L572.472,461.93 z M567.257,467.022 L572.414,452.833 L574.965,452.833 L574.093,467.022 L572.068,467.022 L572.283,464.122 L570.267,464.122 L569.283,467.022 z" fill="#B2B3B5"/>
    <path d="M579.645,457.372 L579.666,457.501 L579.704,457.501 L579.803,457.372 L581.812,452.833 L583.858,452.833 L579.997,460.981 L578.723,467.022 L576.635,467.022 L577.911,460.981 L577.528,452.833 L579.573,452.833 z" fill="#B2B3B5"/>
    <path d="M590.693,457.448 L590.713,457.08 L590.595,457.08 L590.459,457.448 L588.918,461.93 L590.343,461.93 z M585.129,467.022 L590.283,452.833 L592.834,452.833 L591.964,467.022 L589.941,467.022 L590.152,464.122 L588.14,464.122 L587.154,467.022 z" fill="#B2B3B5"/>
    <path d="M601.986,452.833 L599.591,464.104 C599.437,464.69 599.203,465.212 598.92,465.651 C598.625,466.044 598.298,466.413 597.855,466.694 C597.39,467.022 596.83,467.181 596.154,467.181 C595.478,467.181 594.976,467.022 594.627,466.694 C594.298,466.413 594.127,466.044 594.047,465.651 C593.916,465.212 593.916,464.71 594.027,464.104 L596.427,452.833 L598.509,452.833 L596.115,464.104 C596.019,464.476 596.054,464.79 596.213,464.991 C596.289,465.095 596.408,465.149 596.578,465.149 C596.945,465.149 597.179,464.913 597.31,464.632 C597.369,464.515 597.449,464.341 597.502,464.104 L599.9,452.833 z" fill="#B2B3B5"/>
    <path d="M602.565,454.971 L603.034,452.832 L609.057,452.832 L608.591,454.971 L606.625,454.971 L604.075,467.022 L601.987,467.022 L604.539,454.971 z" fill="#B2B3B5"/>
    <path d="M612.889,455.751 C612.967,455.358 612.926,455.065 612.795,454.864 C612.715,454.761 612.584,454.706 612.41,454.706 C612.045,454.706 611.813,454.972 611.676,455.224 C611.598,455.38 611.541,455.552 611.5,455.751 L609.725,464.105 C609.625,464.476 609.664,464.79 609.819,464.991 C609.897,465.095 610.014,465.149 610.192,465.149 C610.553,465.149 610.789,464.913 610.922,464.632 C610.983,464.515 611.055,464.341 611.114,464.105 z M613.202,464.105 C613.047,464.69 612.815,465.212 612.526,465.651 C612.235,466.044 611.905,466.413 611.461,466.694 C611.002,467.022 610.436,467.181 609.762,467.181 C609.088,467.181 608.582,467.022 608.237,466.694 C607.91,466.413 607.733,466.044 607.66,465.651 C607.522,465.212 607.522,464.71 607.641,464.105 L609.414,455.751 C609.551,455.183 609.762,454.683 610.073,454.216 C610.364,453.835 610.67,453.442 611.114,453.161 C611.559,452.868 612.135,452.675 612.836,452.675 C613.528,452.675 614.01,452.868 614.338,453.161 C614.666,453.442 614.864,453.835 614.938,454.216 C615.077,454.644 615.077,455.146 614.977,455.751 z" fill="#B2B3B5"/>
    <path d="M621.674,459.217 C622.313,459.217 622.756,459.108 623.049,458.778 C623.356,458.467 623.506,457.947 623.682,457.156 C623.858,456.365 623.916,455.824 623.762,455.455 C623.606,455.127 623.225,454.953 622.584,454.953 z M620.963,452.832 L623.049,452.832 C623.955,452.832 624.807,453.043 625.362,453.717 C625.926,454.391 626.174,455.455 625.809,457.079 C625.44,458.701 624.766,459.744 623.936,460.418 C623.104,461.098 622.141,461.35 621.231,461.35 L620.033,467.022 L617.947,467.022 z" fill="#B2B3B5"/>
    <path d="M629.947,457.448 L629.967,457.08 L629.851,457.08 L629.711,457.448 L628.17,461.93 L629.597,461.93 z M624.384,467.022 L629.537,452.833 L632.09,452.833 L631.218,467.022 L629.195,467.022 L629.406,464.122 L627.396,464.122 L626.412,467.022 z" fill="#B2B3B5"/>
    <path d="M636.514,459.108 C636.809,459.108 637.192,459.085 637.561,458.795 C637.922,458.504 638.291,458.004 638.502,457.001 C638.713,455.997 638.582,455.473 638.332,455.182 C638.078,454.901 637.692,454.901 637.407,454.901 z M636.475,467.022 L636.651,461.036 L636.092,461.036 L634.836,467.022 L632.748,467.022 L635.764,452.833 L637.85,452.833 C640.336,452.833 641.094,454.215 640.532,456.922 C640.223,458.329 639.584,459.61 638.676,460.149 L638.563,467.022 z" fill="#B2B3B5"/>
    <path d="M641.734,454.971 L642.201,452.832 L648.226,452.832 L647.763,454.971 L645.795,454.971 L643.242,467.022 L641.16,467.022 L643.711,454.971 z" fill="#B2B3B5"/>
    <path d="M651.838,456.633 C651.93,456.17 652.029,455.654 651.971,455.244 C651.912,454.863 651.76,454.588 651.43,454.588 C650.889,454.608 650.6,455.164 650.428,455.996 C650.33,456.483 650.408,456.985 650.619,457.518 C650.832,458.065 651.08,458.625 651.369,459.217 C651.738,459.938 652.029,460.676 652.26,461.387 C652.475,462.1 652.57,462.834 652.397,463.606 C652.182,464.551 651.877,465.422 651.279,466.097 C650.674,466.772 649.904,467.18 648.748,467.18 C647.412,467.18 646.756,466.676 646.506,465.903 C646.217,465.131 646.367,464.121 646.582,463.049 L648.668,462.852 C648.537,463.449 648.438,464.051 648.496,464.496 C648.555,464.953 648.707,465.266 649.152,465.266 C649.768,465.266 650.119,464.61 650.33,463.699 C650.428,463.238 650.33,462.697 650.119,462.141 C650.059,462.002 650.002,461.85 649.943,461.709 C649.883,461.578 649.828,461.428 649.768,461.287 C649.629,460.998 649.479,460.694 649.328,460.362 C649.17,460.031 649.012,459.705 648.859,459.336 C648.537,458.608 648.361,457.87 648.301,457.133 C648.244,456.764 648.301,456.383 648.379,455.996 C648.537,455.223 648.879,454.391 649.479,453.757 C650.041,453.141 650.815,452.692 651.799,452.674 C653.09,452.651 653.69,453.178 653.942,453.932 C654.172,454.705 654.098,455.654 653.922,456.445 z" fill="#B2B3B5"/>
    <path d="M679.41,446.815 C679.41,447.692 680.121,448.397 680.992,448.397 L694.031,448.397 C694.902,448.397 695.613,447.692 695.613,446.815 C695.613,445.942 694.902,445.233 694.031,445.233 L680.992,445.233 C680.121,445.233 679.41,445.942 679.41,446.815" fill="#B2B3B5"/>
    <path d="M706.387,454.063 C709.498,454.057 712.018,451.542 712.03,448.42 C712.018,445.309 709.498,442.788 706.387,442.788 C703.268,442.788 700.75,445.309 700.744,448.42 C700.75,451.542 703.268,454.057 706.387,454.063 M697.58,448.42 L697.58,448.42 C697.58,443.563 701.52,439.624 706.387,439.624 C711.248,439.624 715.194,443.555 715.194,448.42 C715.194,453.284 711.248,457.227 706.387,457.227 C701.52,457.227 697.58,453.284 697.58,448.42" fill="#B2B3B5"/>
    <path d="M668.635,454.063 C671.752,454.057 674.272,451.542 674.278,448.42 C674.272,445.309 671.752,442.788 668.635,442.788 C665.524,442.788 663.004,445.309 662.996,448.42 C663.004,451.542 665.524,454.057 668.635,454.063 M659.832,448.42 L659.832,448.42 C659.832,443.555 663.778,439.624 668.635,439.624 C673.498,439.624 677.442,443.555 677.442,448.42 C677.442,453.284 673.498,457.227 668.635,457.227 C663.778,457.227 659.832,453.284 659.832,448.42" fill="#B2B3B5"/>
    <path d="M722.617,441.002 C722.26,440.269 721.785,439.519 721.189,438.764 C720.006,437.244 718.388,435.668 716.471,434.217 L694.517,417.606 C692.224,415.869 689.154,414.4 685.935,413.316 C682.715,412.239 679.379,411.559 676.5,411.558 L664.902,411.558 C663.875,411.553 662.873,411.887 662.142,412.571 C661.396,413.24 660.994,414.242 660.996,415.236 C660.996,415.709 661.08,416.183 661.234,416.639 L666.138,431.476 C666.199,431.637 666.215,431.769 666.215,431.871 C666.209,432.083 666.16,432.188 666.019,432.346 C665.879,432.498 665.596,432.68 665.154,432.775 C659.002,434.141 654.191,439.027 652.931,445.215 L529.599,445.215 C528.73,445.215 528.017,445.928 528.017,446.797 C528.017,447.683 528.73,448.389 529.599,448.389 L654.105,448.389 C654.976,448.482 655.758,447.861 655.855,446.99 C656.459,441.496 660.543,437.039 665.844,435.864 C666.789,435.658 667.652,435.223 668.312,434.533 C668.976,433.848 669.381,432.875 669.379,431.871 C669.379,431.408 669.299,430.934 669.144,430.477 L664.24,415.647 C664.181,415.473 664.16,415.338 664.16,415.236 C664.172,415.022 664.222,414.969 664.283,414.894 C664.357,414.828 664.515,414.723 664.902,414.721 L676.5,414.721 C678.871,414.717 681.971,415.314 684.924,416.316 C687.888,417.308 690.724,418.696 692.607,420.123 L714.566,436.734 C717.14,438.668 719.096,440.941 719.769,442.367 C719.992,442.825 720.062,443.183 720.056,443.279 L718.474,446.023 C718.041,446.779 718.297,447.746 719.056,448.184 C719.306,448.326 719.576,448.397 719.846,448.397 C720.392,448.397 720.92,448.115 721.215,447.606 L722.836,444.799 C723.121,444.308 723.221,443.773 723.221,443.291 C723.215,442.473 722.972,441.744 722.617,441.002" fill="#B2B3B5"/>
  </g>
</svg>
