<?xml version="1.0" encoding="utf-8"?>
<!-- Generator: Adobe Illustrator 13.0.2, SVG Export Plug-In . SVG Version: 6.00 Build 14948)  -->
<!DOCTYPE svg PUBLIC "-//W3C//DTD SVG 1.1//EN" "http://www.w3.org/Graphics/SVG/1.1/DTD/svg11.dtd">
<svg version="1.1" id="Layer_1" xmlns="http://www.w3.org/2000/svg" xmlns:xlink="http://www.w3.org/1999/xlink" x="0px" y="0px"
	 width="147.336px" height="113.385px" viewBox="0 0 147.336 113.385" enable-background="new 0 0 147.336 113.385"
	 xml:space="preserve">
<g id="Layer_2">
</g>
<g id="Layer_1_1_">
	<g>
		<g>
			<g>
				<path fill="#999999" d="M3.398,43.188v-5.945h2.244c0.461,0,0.822,0.016,1.223,0.277c0.398,0.27,0.626,0.685,0.626,1.17
					c0,0.676-0.398,1.179-1.051,1.333v0.019c0.736,0.155,1.229,0.746,1.229,1.508c0,0.506-0.17,0.945-0.569,1.258
					c-0.453,0.357-0.92,0.381-1.467,0.381L3.398,43.188L3.398,43.188z M5.297,39.791c0.372,0,0.779,0.009,1.084-0.226
					c0.244-0.176,0.371-0.493,0.371-0.778c0-0.357-0.137-0.608-0.443-0.791C6.05,37.85,5.784,37.85,5.489,37.85H4.143v1.94
					L5.297,39.791L5.297,39.791z M5.601,42.556c0.327,0,0.694-0.034,0.954-0.243c0.25-0.188,0.37-0.475,0.37-0.797
					c0-0.356-0.155-0.71-0.431-0.928c-0.285-0.226-0.659-0.226-0.998-0.226H4.143v2.193L5.601,42.556L5.601,42.556z"/>
				<path fill="#999999" d="M15.25,41.005c0,0.589-0.035,1.135-0.437,1.612c-0.397,0.477-0.996,0.659-1.602,0.659
					c-0.58,0-1.198-0.124-1.596-0.572c-0.435-0.484-0.468-1.084-0.468-1.699v-3.762h0.745v3.762c0,0.355,0.01,0.841,0.225,1.151
					c0.244,0.357,0.748,0.461,1.153,0.461c0.381,0,0.815-0.122,1.066-0.425c0.288-0.339,0.288-0.781,0.288-1.188v-3.762h0.624v3.763
					H15.25z"/>
				<path fill="#999999" d="M19.064,43.188v-5.945h0.745v5.945H19.064z"/>
				<path fill="#999999" d="M27.145,43.188h-3.512v-5.945h0.747v5.286h2.765V43.188z"/>
				<path fill="#999999" d="M30.37,37.243h1.882c0.846,0,1.482,0.172,2.042,0.84c0.516,0.598,0.723,1.343,0.723,2.114
					c0,0.729-0.192,1.448-0.614,2.046c-0.479,0.668-1.095,0.945-1.91,0.945H30.37V37.243z M32.206,42.556
					c0.687,0,1.231-0.155,1.619-0.754c0.299-0.45,0.436-1.064,0.436-1.604c0-0.605-0.156-1.238-0.546-1.725
					c-0.407-0.511-0.884-0.606-1.509-0.606h-1.094v4.689H32.206z"/>
				<path fill="#999999" d="M38.5,43.188v-5.945h0.745v5.945H38.5z"/>
				<path fill="#999999" d="M47.412,43.188h-0.729l-3.026-5.185v5.185h-0.621v-5.945h0.933l2.815,4.846v-4.846h0.628V43.188z"/>
				<path fill="#999999" d="M55.68,43.232h-0.458l-0.201-0.737c-0.371,0.545-0.996,0.781-1.643,0.781
					c-0.802,0-1.387-0.283-1.858-0.919c-0.45-0.615-0.622-1.327-0.622-2.081c0-1.56,0.813-3.121,2.572-3.121
					c1.136,0,1.872,0.643,2.149,1.708l-0.701,0.173c-0.149-0.745-0.723-1.257-1.499-1.257c-1.345,0-1.718,1.369-1.718,2.463
					c0,0.511,0.095,1.118,0.338,1.576c0.268,0.503,0.799,0.851,1.387,0.851c0.919,0,1.492-0.625,1.492-1.526v-0.329h-1.481V40.19
					h2.243V43.232z"/>
				<path fill="#999999" d="M68.106,41.334c-0.276,1.127-0.946,1.942-2.201,1.942c-1.714,0-2.42-1.656-2.42-3.121
					c0-1.533,0.758-3,2.479-3c1.196,0,1.899,0.807,2.143,1.896l-0.699,0.132c-0.209-0.755-0.584-1.405-1.468-1.405
					c-1.292,0-1.638,1.405-1.638,2.438c0,0.467,0.079,1.046,0.277,1.48c0.242,0.531,0.705,0.953,1.326,0.953
					c0.912,0,1.335-0.685,1.527-1.463L68.106,41.334z"/>
				<path fill="#999999" d="M71.274,40.258c0-1.483,0.729-3.103,2.442-3.103c1.674,0,2.447,1.525,2.447,2.991
					c0,1.457-0.746,3.13-2.437,3.13C72.021,43.276,71.274,41.75,71.274,40.258z M75.383,40.19c0-0.529-0.088-1.146-0.354-1.621
					c-0.271-0.469-0.729-0.8-1.286-0.8c-1.326,0-1.691,1.432-1.691,2.497c0,1.024,0.417,2.402,1.675,2.402
					C75.002,42.669,75.383,41.212,75.383,40.19z"/>
				<path fill="#999999" d="M84.029,43.188h-0.729l-3.025-5.185v5.185H79.65v-5.945h0.937l2.818,4.846v-4.846h0.625L84.029,43.188
					L84.029,43.188z"/>
				<path fill="#999999" d="M89.659,43.188h-0.748V37.89h-1.688v-0.647h4.125v0.647h-1.688V43.188z"/>
				<path fill="#999999" d="M98.052,43.188l-1.101-2.573h-1.648v2.573h-0.746v-5.945h2.23c0.484,0,0.953,0.06,1.351,0.361
					c0.401,0.306,0.633,0.8,0.633,1.303c0,0.7-0.416,1.335-1.11,1.523l1.17,2.758H98.052z M96.698,40.009
					c0.397,0,0.729-0.026,1.022-0.331c0.209-0.208,0.303-0.493,0.303-0.779c0-0.347-0.127-0.634-0.415-0.823
					c-0.259-0.185-0.513-0.192-0.82-0.192h-1.484v2.126L96.698,40.009L96.698,40.009z"/>
				<path fill="#999999" d="M106.572,43.188h-0.761l-0.602-1.733h-2.199l-0.529,1.733h-0.625l1.925-5.945h0.856L106.572,43.188z
					 M104.135,38.04l-0.915,2.853h1.827L104.135,38.04z"/>
				<path fill="#999999" d="M113.888,41.334c-0.278,1.127-0.945,1.942-2.202,1.942c-1.716,0-2.417-1.656-2.417-3.121
					c0-1.533,0.754-3,2.478-3c1.196,0,1.897,0.807,2.143,1.896l-0.701,0.132c-0.21-0.755-0.585-1.405-1.469-1.405
					c-1.287,0-1.637,1.405-1.637,2.438c0,0.467,0.08,1.046,0.277,1.48c0.242,0.531,0.703,0.953,1.326,0.953
					c0.91,0,1.336-0.685,1.525-1.463L113.888,41.334z"/>
				<path fill="#999999" d="M119.167,43.188h-0.748V37.89h-1.688v-0.647h4.127v0.647h-1.688v5.298H119.167z"/>
				<path fill="#999999" d="M123.604,40.258c0-1.483,0.73-3.103,2.445-3.103c1.674,0,2.443,1.525,2.443,2.991
					c0,1.457-0.746,3.13-2.435,3.13C124.349,43.276,123.604,41.75,123.604,40.258z M127.715,40.19c0-0.529-0.088-1.146-0.355-1.621
					c-0.268-0.469-0.727-0.8-1.283-0.8c-1.324,0-1.689,1.432-1.689,2.497c0,1.024,0.417,2.402,1.674,2.402
					C127.333,42.669,127.715,41.212,127.715,40.19z"/>
				<path fill="#999999" d="M135.493,43.188l-1.103-2.573h-1.647v2.573h-0.744v-5.945h2.227c0.484,0,0.952,0.06,1.352,0.361
					c0.399,0.306,0.633,0.8,0.633,1.303c0,0.7-0.416,1.335-1.107,1.523l1.171,2.758H135.493z M134.14,40.009
					c0.396,0,0.728-0.026,1.022-0.331c0.207-0.208,0.303-0.493,0.303-0.779c0-0.347-0.131-0.634-0.416-0.823
					c-0.26-0.185-0.514-0.192-0.824-0.192h-1.482v2.126L134.14,40.009L134.14,40.009z"/>
				<path fill="#999999" d="M139.977,41.438c0.242,0.825,0.926,1.206,1.758,1.206c0.357,0,0.789-0.078,1.068-0.295
					c0.227-0.174,0.365-0.479,0.365-0.765c0-0.598-0.496-0.84-1.018-0.969l-0.986-0.245c-0.398-0.094-0.762-0.188-1.072-0.476
					c-0.315-0.276-0.487-0.685-0.487-1.1c0-1.146,0.987-1.64,2.019-1.64c0.996,0,1.797,0.494,2.119,1.455l-0.68,0.185
					c-0.127-0.651-0.822-1.049-1.455-1.049c-0.564,0-1.273,0.294-1.273,0.944c0,0.667,0.52,0.814,1.074,0.945l0.893,0.216
					c0.391,0.086,0.781,0.199,1.082,0.459c0.373,0.305,0.556,0.712,0.556,1.18c0,0.537-0.233,1.023-0.667,1.353
					c-0.434,0.33-1.016,0.434-1.549,0.434c-1.217,0-2.014-0.538-2.411-1.692L139.977,41.438z"/>
			</g>
			<g>
				<path fill="#999999" d="M0,26.042c0.832,0.133,1.013,0.133,1.537,0.133c2.061,0,2.419-0.792,2.419-3.777V0.483h4.389v21.739
					c0,2.414,0,7.772-5.975,7.772c-0.351,0-1.404,0-2.37-0.308V26.042z"/>
				<path fill="#999999" d="M19.203,29.775l-1.01-8.081H14.68l-0.92,8.081H9.848l4.524-29.292h4.303l4.655,29.292H19.203z
					 M17.798,18.14l-0.659-5.229c-0.176-1.404-0.788-7.157-0.879-7.992c-0.046,0.835-0.087,1.58-0.22,2.941
					c-0.265,2.812-0.307,3.119-0.483,5.095l-0.57,5.185H17.798z"/>
				<path fill="#999999" d="M38.085,29.775V18.709c0-1.494,0.085-6.323,0.132-10.673c-0.089,0.528-1.013,7.642-1.447,10.673
					l-1.715,11.066h-3.25l-1.8-11.33c-1.012-6.368-1.012-6.412-1.405-10.409c0.131,5.754,0.219,9.135,0.219,10.542v11.197h-3.426
					V0.483h4.743l2.415,15.369c0.352,1.977,0.613,4.919,0.921,8.301c0.132-2.896,0.396-4.831,0.966-8.301L36.77,0.483h4.873v29.292
					H38.085z"/>
				<path fill="#999999" d="M45.153,29.775V0.483h9.969v3.732h-5.579v8.345h4.042v3.731h-4.042v9.75h5.974v3.733L45.153,29.775
					L45.153,29.775z"/>
				<path fill="#999999" d="M61.096,22.619c0.048,1.843,0.131,3.862,1.845,3.862c1.274,0,1.887-1.229,1.887-4.171
					c0-3.338-1.054-4.261-3.818-6.588c-1.096-0.924-3.645-3.471-3.645-7.993c0-4.084,1.536-7.598,5.664-7.598
					c4.215,0,5.447,3.469,5.664,6.412L64.609,7.07c-0.308-3.25-0.922-3.25-1.535-3.25c-1.057,0-1.363,1.363-1.363,3.513
					c0,2.11,0.483,3.119,2.898,5.139c2.59,2.24,4.566,4.394,4.566,9.049c0,3.645-0.788,8.605-6.19,8.605
					c-5.098,0-5.973-4.26-5.973-7.071L61.096,22.619z"/>
				<path fill="#999999" d="M94.017,22.619c0.04,1.843,0.13,3.862,1.844,3.862c1.272,0,1.888-1.229,1.888-4.171
					c0-3.338-1.055-4.261-3.817-6.588c-1.103-0.924-3.647-3.471-3.647-7.993c0-4.084,1.533-7.598,5.662-7.598
					c4.219,0,5.449,3.469,5.668,6.412L97.526,7.07c-0.309-3.25-0.918-3.25-1.537-3.25c-1.052,0-1.359,1.363-1.359,3.513
					c0,2.11,0.484,3.119,2.896,5.139c2.592,2.24,4.566,4.394,4.566,9.049c0,3.645-0.788,8.605-6.19,8.605
					c-5.095,0-5.97-4.26-5.97-7.071L94.017,22.619z"/>
				<path fill="#999999" d="M110.657,0.132c4.657,0,6.676,3.688,6.676,15.02c0,11.33-2.019,14.975-6.676,14.975
					c-5.928,0-6.632-6.368-6.632-14.975C104.025,6.853,104.598,0.132,110.657,0.132z M109.077,24.727
					c0.174,0.834,0.482,1.755,1.58,1.755c1.1,0,1.406-0.88,1.584-1.755c0.396-1.978,0.396-8.301,0.396-8.828
					c0-4.172-0.046-6.019-0.222-9.136c-0.09-2.151-0.615-2.986-1.758-2.986c-1.098,0-1.406,0.835-1.58,1.757
					c-0.354,1.843-0.354,9.44-0.354,9.618C108.724,17.437,108.724,22.749,109.077,24.727z"/>
				<path fill="#999999" d="M129.252,29.775l-3.91-12.955c-0.131-0.439-1.055-3.381-1.885-7.377
					c0.133,3.337,0.349,9.045,0.349,10.889v9.443h-3.603V0.483h3.691l3.732,13.176c1.011,3.556,1.363,4.875,2.021,7.686
					c-0.219-3.471-0.396-7.246-0.396-10.453V0.483h3.558v29.292H129.252z"/>
				<path fill="#999999" d="M139.256,22.619c0.043,1.843,0.132,3.862,1.844,3.862c1.271,0,1.888-1.229,1.888-4.171
					c0-3.338-1.053-4.261-3.821-6.588c-1.096-0.924-3.646-3.471-3.646-7.993c0-4.084,1.537-7.598,5.666-7.598
					c4.215,0,5.446,3.469,5.663,6.412l-4.081,0.526c-0.308-3.25-0.923-3.25-1.537-3.25c-1.055,0-1.364,1.363-1.364,3.513
					c0,2.11,0.488,3.119,2.901,5.139c2.592,2.24,4.567,4.394,4.567,9.049c0,3.645-0.793,8.605-6.192,8.605
					c-5.095,0-5.972-4.26-5.972-7.071L139.256,22.619z"/>
				<g>
					<path fill="#999999" d="M85.538,23.873c-0.351,0.177-0.632,0.249-1.123,0.249c-1.199,0-1.834-0.706-2.434-1.551
						c-0.527,0.598-1.439,1.584-3.38,1.584c-3.767,0-5.036-3.344-5.036-6.479c0-3.52,1.375-5.423,2.891-7.535
						c-1.127-2.219-1.869-3.627-1.869-5.423C74.586,2.535,75.891,0,78.531,0c2.255,0,4.015,1.688,4.015,4.684
						c0,1.69-0.563,3.451-2.779,5.915l2.533,5.6c0.246-1.127,0.386-3.486,0.386-3.872l2.575,0.313
						c-0.18,2.749-0.565,4.615-1.445,6.762c0.352,0.882,0.811,1.621,1.445,1.621c0.142,0,0.205-0.036,0.277-0.072V23.873z
						 M77.758,13.029c-0.92,1.937-0.92,3.979-0.92,4.507c0,1.655,0.428,3.731,2.045,3.731c0.281,0,1.341-0.068,2.007-1.193
						L77.758,13.029z M78.602,8.1c0.458-0.6,1.303-1.691,1.303-3.45c0-1.374-0.561-1.938-1.158-1.938
						c-0.637,0-1.166,0.669-1.166,1.938C77.579,6.092,78.355,7.604,78.602,8.1z"/>
					<rect x="73.566" y="26.042" fill="#999999" width="11.972" height="3.733"/>
				</g>
			</g>
		</g>
		<g>
			<g>
				<g>
					<polygon fill="#999999" points="35.317,76.483 3.362,58.032 3.362,50.653 35.317,69.104 					"/>
					<polygon fill="#999999" points="35.317,76.483 67.276,58.032 67.276,50.653 35.317,69.104 					"/>
				</g>
				<g>
					<polygon fill="#999999" points="35.317,91.245 3.362,72.793 3.362,65.415 35.317,83.866 					"/>
					<polygon fill="#999999" points="35.317,91.245 48.101,83.864 41.711,80.174 35.317,83.866 					"/>
				</g>
			</g>
			<g>
				<polygon fill="#999999" points="73.669,98.624 41.711,80.174 41.711,72.793 73.669,91.245 				"/>
				<polygon fill="#999999" points="73.669,98.624 105.624,80.174 105.624,72.793 73.669,91.245 				"/>
			</g>
			<g>
				<polygon fill="#999999" points="112.016,76.483 80.06,58.032 80.06,50.653 112.016,69.104 				"/>
				<polygon fill="#999999" points="112.016,76.483 143.973,58.032 143.973,50.653 112.016,69.104 				"/>
			</g>
			<g>
				<polygon fill="#999999" points="73.669,113.385 41.711,94.937 41.711,87.556 73.669,106.004 				"/>
				<polygon fill="#999999" points="73.669,113.385 105.624,94.937 105.624,87.556 73.669,106.004 				"/>
			</g>
			<g>
				<polygon fill="#999999" points="112.016,91.245 105.604,87.542 105.624,80.174 112.016,83.866 				"/>
				<polygon fill="#999999" points="112.016,91.245 143.973,72.793 143.973,65.415 112.016,83.866 				"/>
			</g>
		</g>
	</g>
</g>
</svg>
