<?xml version="1.0" encoding="UTF-8"?>
<!DOCTYPE svg PUBLIC "-//W3C//DTD SVG 1.1//EN" "http://www.w3.org/Graphics/SVG/1.1/DTD/svg11.dtd">
<svg version="1.1" xmlns="http://www.w3.org/2000/svg" xmlns:xlink="http://www.w3.org/1999/xlink" x="0" y="0" width="228.254" height="58.286" viewBox="0, 0, 228.254, 58.286">
  <g id="Layer_1" transform="translate(-103.432, -126.762)">
    <path d="M179.817,141.865 C178.934,140.723 177.483,140.084 176.052,140.084 C172.553,140.084 170.241,142.882 170.241,146.424 C170.241,149.706 172.417,152.503 176.052,152.503 C177.835,152.503 179.202,151.706 180.128,150.408 L181.909,151.753 C181.446,152.391 179.575,154.48 176.006,154.48 C171.054,154.48 167.991,150.341 167.991,146.424 C167.991,141.577 171.321,138.1 176.117,138.1 C178.169,138.1 180.324,138.871 181.578,140.526 z" fill="#673183"/>
    <path d="M186.423,145.364 L189.198,145.364 C190.87,145.364 192.547,144.969 192.547,142.86 C192.547,140.746 190.87,140.347 189.198,140.347 L186.423,140.347 z M184.306,138.496 L189.79,138.496 C193.775,138.496 194.788,140.895 194.788,142.86 C194.788,144.842 193.318,146.71 190.958,146.977 L195.38,154.085 L192.743,154.085 L188.777,147.215 L186.423,147.215 L186.423,154.085 L184.306,154.085 z" fill="#673183"/>
    <path d="M210.724,146.295 C210.724,142.881 208.413,140.084 204.849,140.084 C201.281,140.084 198.974,142.881 198.974,146.295 C198.974,149.705 201.281,152.502 204.849,152.502 C208.413,152.502 210.724,149.705 210.724,146.295 M196.724,146.295 C196.724,141.665 200.094,138.101 204.849,138.101 C209.599,138.101 212.974,141.665 212.974,146.295 C212.974,150.914 209.599,154.48 204.849,154.48 C200.094,154.48 196.724,150.914 196.724,146.295" fill="#673183"/>
    <path d="M216.032,138.496 L225.833,138.496 L225.833,140.479 L218.149,140.479 L218.149,145.364 L225.301,145.364 L225.301,147.35 L218.149,147.35 L218.149,154.085 L216.032,154.085 z" fill="#673183"/>
    <path d="M232.42,140.479 L227.404,140.479 L227.404,138.496 L239.557,138.496 L239.557,140.479 L234.535,140.479 L234.535,154.084 L232.42,154.084 z" fill="#673183"/>
    <path d="M243.6,143.91 L241.88,143.91 L241.88,138.496 L243.6,138.496 z" fill="#673183"/>
    <path d="M246.755,150.83 C247.502,151.97 248.8,152.503 250.056,152.503 C251.44,152.503 253.162,151.621 253.162,149.904 C253.162,146.313 245.472,148.538 245.472,142.464 C245.472,140.632 247.015,138.101 250.759,138.101 C252.453,138.101 254.088,138.452 255.254,139.888 L253.534,141.449 C253.004,140.632 251.972,140.084 250.759,140.084 C248.425,140.084 247.722,141.496 247.722,142.464 C247.722,146.401 255.406,144.051 255.406,149.663 C255.406,152.676 252.982,154.48 249.986,154.48 C247.983,154.48 246.072,153.798 245.015,152.325 z" fill="#673183"/>
    <path d="M177.638,167.605 L174.734,160.454 L174.689,160.454 L171.736,167.605 z M173.853,157.723 L175.763,157.723 L182.441,173.306 L179.972,173.306 L178.411,169.457 L170.991,169.457 L169.45,173.306 L166.982,173.306 z" fill="#E36D37"/>
    <path d="M194.762,161.092 C193.876,159.949 192.427,159.305 190.991,159.305 C187.491,159.305 185.183,162.103 185.183,165.648 C185.183,168.928 187.359,171.724 190.991,171.724 C192.777,171.724 194.141,170.933 195.064,169.635 L196.851,170.974 C196.385,171.617 194.517,173.701 190.949,173.701 C185.993,173.701 182.935,169.569 182.935,165.648 C182.935,160.802 186.26,157.327 191.056,157.327 C193.107,157.327 195.263,158.1 196.521,159.752 z" fill="#E36D37"/>
    <path d="M209.81,161.092 C208.923,159.949 207.477,159.305 206.04,159.305 C202.54,159.305 200.232,162.103 200.232,165.648 C200.232,168.928 202.409,171.724 206.04,171.724 C207.826,171.724 209.191,170.933 210.114,169.635 L211.901,170.974 C211.437,171.617 209.566,173.701 205.996,173.701 C201.043,173.701 197.985,169.569 197.985,165.648 C197.985,160.802 201.312,157.327 206.106,157.327 C208.157,157.327 210.312,158.1 211.57,159.752 z" fill="#E36D37"/>
    <path d="M227.028,165.516 C227.028,162.103 224.72,159.305 221.155,159.305 C217.584,159.305 215.275,162.103 215.275,165.516 C215.275,168.928 217.584,171.724 221.155,171.724 C224.72,171.724 227.028,168.928 227.028,165.516 M213.026,165.516 C213.026,160.895 216.397,157.328 221.155,157.328 C225.907,157.328 229.276,160.895 229.276,165.516 C229.276,170.136 225.907,173.702 221.155,173.702 C216.397,173.702 213.026,170.136 213.026,165.516" fill="#E36D37"/>
    <path d="M234.213,157.723 L234.213,167.276 C234.213,169.213 235.183,171.724 238.133,171.724 C241.077,171.724 242.048,169.213 242.048,167.276 L242.048,157.723 L244.162,157.723 L244.162,167.605 C244.162,171.221 241.543,173.702 238.133,173.702 C234.714,173.702 232.098,171.221 232.098,167.605 L232.098,157.723 z" fill="#E36D37"/>
    <path d="M247.944,157.723 L250.718,157.723 L259.308,170.537 L259.349,170.537 L259.349,157.723 L261.464,157.723 L261.464,173.306 L258.778,173.306 L250.106,160.498 L250.059,160.498 L250.059,173.306 L247.944,173.306 z" fill="#E36D37"/>
    <path d="M268.714,159.701 L263.697,159.701 L263.697,157.723 L275.847,157.723 L275.847,159.701 L270.831,159.701 L270.831,173.306 L268.714,173.306 z" fill="#E36D37"/>
    <path d="M285.359,167.605 L282.452,160.454 L282.407,160.454 L279.459,167.605 z M281.574,157.723 L283.487,157.723 L290.159,173.306 L287.691,173.306 L286.13,169.457 L278.712,169.457 L277.169,173.306 L274.7,173.306 z" fill="#E36D37"/>
    <path d="M292.268,157.723 L295.042,157.723 L303.629,170.537 L303.67,170.537 L303.67,157.723 L305.783,157.723 L305.783,173.306 L303.097,173.306 L294.43,160.498 L294.383,160.498 L294.383,173.306 L292.268,173.306 z" fill="#E36D37"/>
    <path d="M313.038,159.701 L308.018,159.701 L308.018,157.723 L320.17,157.723 L320.17,159.701 L315.154,159.701 L315.154,173.306 L313.038,173.306 z" fill="#E36D37"/>
    <path d="M323.03,170.053 C323.778,171.197 325.08,171.724 326.334,171.724 C327.717,171.724 329.438,170.844 329.438,169.125 C329.438,165.535 321.752,167.758 321.752,161.686 C321.752,159.859 323.294,157.327 327.038,157.327 C328.733,157.327 330.365,157.678 331.53,159.109 L329.811,160.67 C329.28,159.859 328.247,159.305 327.038,159.305 C324.705,159.305 323.999,160.719 323.999,161.686 C323.999,165.623 331.686,163.272 331.686,168.888 C331.686,171.903 329.26,173.701 326.266,173.701 C324.262,173.701 322.352,173.019 321.29,171.547 z" fill="#E36D37"/>
    <path d="M161.721,155.904 C161.721,172.003 148.669,185.048 132.572,185.048 C116.484,185.048 103.432,172.003 103.432,155.904 C103.432,139.808 116.484,126.762 132.572,126.762 C148.669,126.762 161.721,139.808 161.721,155.904" fill="#673183"/>
    <path d="M143.733,177.409 L117.095,162.028 L117.095,149.781 L143.733,165.159 z" fill="#E36D37"/>
    <path d="M143.733,134.4 L117.095,149.781 L117.095,162.028 L143.733,146.649 z" fill="#FEFEFE"/>
  </g>
</svg>
