<?xml version="1.0" encoding="UTF-8"?>
<!DOCTYPE svg PUBLIC "-//W3C//DTD SVG 1.1//EN" "http://www.w3.org/Graphics/SVG/1.1/DTD/svg11.dtd">
<svg version="1.1" xmlns="http://www.w3.org/2000/svg" xmlns:xlink="http://www.w3.org/1999/xlink" x="0" y="0" width="212.598" height="99.212" viewBox="0, 0, 212.598, 99.212">
  <g id="Layer_1" transform="translate(-314.646, -106.299)">
    <path d="M333.522,147.313 C333.522,158.424 336.16,161.977 340.473,161.977 C344.785,161.977 347.423,158.424 347.423,147.313 C347.423,136.201 344.785,132.649 340.473,132.649 C336.16,132.649 333.522,136.201 333.522,147.313 M356.203,190.848 C356.203,188.056 354.934,186.536 350.215,186.536 L332.353,186.536 C329.919,188.869 328.802,192.522 328.802,194.756 C328.802,200.691 333.927,203.736 340.473,203.736 C348.845,203.736 356.203,199.018 356.203,190.848 M349.605,131.786 C357.573,133.816 362.85,138.788 362.85,147.313 C362.85,158.73 353.259,163.854 340.473,163.854 C337.225,163.854 334.181,163.55 331.492,162.839 C327.992,164.919 325.556,166.594 325.556,169.232 C325.556,171.617 327.026,172.683 329.818,172.683 L353.716,172.683 C361.276,172.683 367.772,175.372 367.772,183.846 C367.772,193.842 358.335,205.511 337.682,205.511 C322.004,205.511 314.646,201.502 314.646,196.53 C314.646,189.935 324.845,190.342 330.376,186.536 L327.94,186.536 C323.983,186.536 316.322,185.166 316.322,176.895 C316.322,171.009 319.669,166.949 329.565,162.281 C322.612,159.998 318.147,155.126 318.147,147.313 C318.147,135.845 327.686,130.771 340.473,130.771 C343.212,130.771 345.852,131.024 348.237,131.482 z" fill="#008153"/>
    <path d="M366.277,106.299 C366.277,106.299 367.715,115.326 363.043,121.821 C358.368,128.319 349.353,129.827 349.353,129.827 C349.353,129.827 347.913,120.801 352.586,114.303 C357.26,107.806 366.277,106.299 366.277,106.299" fill="#85B731"/>
    <path d="M368.758,129.598 C368.758,129.598 365.267,131.949 360.72,132.39 C356.172,132.827 352.294,131.189 352.294,131.189 C352.294,131.189 355.785,128.838 360.332,128.397 C364.879,127.959 368.758,129.598 368.758,129.598" fill="#85B731"/>
    <path d="M347.304,129.245 C347.304,129.245 343.556,127.334 340.962,123.573 C338.371,119.811 337.923,115.624 337.923,115.624 C337.923,115.624 341.673,117.537 344.265,121.297 C346.855,125.058 347.304,129.245 347.304,129.245" fill="#85B731"/>
    <path d="M375.465,201.16 L376.872,201.16 C378.819,201.16 380.327,200.218 380.327,198.119 C380.327,196.018 378.819,195.077 376.872,195.077 L375.465,195.077 z M374.782,194.457 L377.048,194.457 C380.856,194.457 381.011,197.581 381.011,198.119 C381.011,198.657 380.856,201.781 377.048,201.781 L374.782,201.781 z" fill="#85B731"/>
    <path d="M383.709,194.457 L384.392,194.457 L384.392,201.781 L383.709,201.781 z" fill="#85B731"/>
    <path d="M388.188,197.685 L389.635,197.685 C391.073,197.685 391.353,196.889 391.353,196.382 C391.353,195.874 391.073,195.078 389.635,195.078 L388.188,195.078 z M387.504,194.457 L389.428,194.457 C390.008,194.457 392.036,194.457 392.036,196.382 C392.036,197.778 390.97,198.16 390.163,198.264 L392.294,201.781 L391.518,201.781 L389.46,198.305 L388.188,198.305 L388.188,201.781 L387.504,201.781 z" fill="#85B731"/>
    <path d="M394.765,194.457 L399.244,194.457 L399.244,195.077 L395.448,195.077 L395.448,197.685 L399.006,197.685 L399.006,198.305 L395.448,198.305 L395.448,201.16 L399.41,201.16 L399.41,201.781 L394.765,201.781 z" fill="#85B731"/>
    <path d="M407.968,200.633 C407.276,201.585 406.323,201.968 405.248,201.968 C403.013,201.968 401.461,200.354 401.461,198.119 C401.461,195.884 403.013,194.27 405.248,194.27 C406.241,194.27 407.131,194.602 407.772,195.419 L407.213,195.884 C406.758,195.202 405.983,194.891 405.248,194.891 C403.334,194.891 402.144,196.298 402.144,198.119 C402.144,199.939 403.334,201.347 405.248,201.347 C405.983,201.347 406.893,200.995 407.41,200.209 z" fill="#85B731"/>
    <path d="M412.2,195.077 L409.697,195.077 L409.697,194.457 L415.387,194.457 L415.387,195.077 L412.883,195.077 L412.883,201.781 L412.2,201.781 z" fill="#85B731"/>
    <path d="M421.867,201.16 L423.273,201.16 C425.219,201.16 426.729,200.218 426.729,198.119 C426.729,196.018 425.219,195.077 423.273,195.077 L421.867,195.077 z M421.184,194.457 L423.45,194.457 C427.257,194.457 427.413,197.581 427.413,198.119 C427.413,198.657 427.257,201.781 423.45,201.781 L421.184,201.781 z" fill="#85B731"/>
    <path d="M430.097,194.457 L434.577,194.457 L434.577,195.077 L430.781,195.077 L430.781,197.685 L434.339,197.685 L434.339,198.305 L430.781,198.305 L430.781,201.16 L434.743,201.16 L434.743,201.781 L430.097,201.781 z" fill="#85B731"/>
    <path d="M437.239,194.457 L437.922,194.457 L437.922,201.16 L441.336,201.16 L441.336,201.781 L437.239,201.781 z" fill="#85B731"/>
    <path d="M443.611,194.457 L444.295,194.457 L444.295,201.781 L443.611,201.781 z" fill="#85B731"/>
    <path d="M446.511,194.457 L447.244,194.457 L449.604,200.881 L451.983,194.457 L452.707,194.457 L449.924,201.781 L449.241,201.781 z" fill="#85B731"/>
    <path d="M454.934,194.457 L459.413,194.457 L459.413,195.077 L455.617,195.077 L455.617,197.685 L459.175,197.685 L459.175,198.305 L455.617,198.305 L455.617,201.16 L459.579,201.16 L459.579,201.781 L454.934,201.781 z" fill="#85B731"/>
    <path d="M462.759,197.685 L464.207,197.685 C465.645,197.685 465.924,196.889 465.924,196.382 C465.924,195.874 465.645,195.078 464.207,195.078 L462.759,195.078 z M462.075,194.457 L464,194.457 C464.579,194.457 466.607,194.457 466.607,196.382 C466.607,197.778 465.541,198.16 464.734,198.264 L466.865,201.781 L466.089,201.781 L464.03,198.305 L462.759,198.305 L462.759,201.781 L462.075,201.781 z" fill="#85B731"/>
    <path d="M470.952,198.626 L468.263,194.458 L469.08,194.458 L471.294,197.933 L473.559,194.458 L474.324,194.458 L471.636,198.626 L471.636,201.781 L470.952,201.781 z" fill="#85B731"/>
    <path d="M480.227,200.426 C480.589,201.036 481.178,201.347 481.903,201.347 C482.824,201.347 483.548,200.788 483.548,199.909 C483.548,197.861 479.772,199.06 479.772,196.278 C479.772,194.974 480.889,194.27 482.122,194.27 C482.917,194.27 483.621,194.539 484.117,195.192 L483.527,195.615 C483.186,195.14 482.731,194.891 482.099,194.891 C481.22,194.891 480.455,195.347 480.455,196.278 C480.455,198.481 484.231,197.157 484.231,199.909 C484.231,201.233 483.145,201.968 481.956,201.968 C480.993,201.968 480.144,201.657 479.575,200.86 z" fill="#85B731"/>
    <path d="M486.857,194.457 L491.337,194.457 L491.337,195.077 L487.541,195.077 L487.541,197.685 L491.099,197.685 L491.099,198.305 L487.541,198.305 L487.541,201.16 L491.502,201.16 L491.502,201.781 L486.857,201.781 z" fill="#85B731"/>
    <path d="M494.684,197.685 L496.131,197.685 C497.569,197.685 497.848,196.889 497.848,196.382 C497.848,195.874 497.569,195.078 496.131,195.078 L494.684,195.078 z M494,194.457 L495.924,194.457 C496.504,194.457 498.532,194.457 498.532,196.382 C498.532,197.778 497.465,198.16 496.659,198.264 L498.789,201.781 L498.014,201.781 L495.955,198.305 L494.684,198.305 L494.684,201.781 L494,201.781 z" fill="#85B731"/>
    <path d="M500.311,194.457 L501.044,194.457 L503.405,200.881 L505.784,194.457 L506.508,194.457 L503.725,201.781 L503.04,201.781 z" fill="#85B731"/>
    <path d="M508.734,194.457 L509.416,194.457 L509.416,201.781 L508.734,201.781 z" fill="#85B731"/>
    <path d="M518.605,200.633 C517.912,201.585 516.961,201.968 515.885,201.968 C513.648,201.968 512.097,200.354 512.097,198.119 C512.097,195.884 513.648,194.27 515.885,194.27 C516.877,194.27 517.768,194.602 518.406,195.419 L517.849,195.884 C517.394,195.202 516.62,194.891 515.885,194.891 C513.971,194.891 512.781,196.298 512.781,198.119 C512.781,199.939 513.971,201.347 515.885,201.347 C516.62,201.347 517.528,200.995 518.044,200.209 z" fill="#85B731"/>
    <path d="M520.981,194.457 L525.461,194.457 L525.461,195.077 L521.665,195.077 L521.665,197.685 L525.223,197.685 L525.223,198.305 L521.665,198.305 L521.665,201.16 L525.626,201.16 L525.626,201.781 L520.981,201.781 z" fill="#85B731"/>
    <path d="M380.737,177.746 C380.737,177.096 380.786,176.607 380.606,176.298 C380.444,175.989 380.087,175.843 379.257,175.908 L379.257,178.559 L382.022,178.559 L382.022,181.275 L379.257,181.275 L379.257,183.048 C379.257,183.57 379.208,184.09 379.728,184.415 L379.728,186.888 L374.442,186.888 L374.442,184.415 C374.963,184.09 374.914,183.57 374.914,183.048 L374.914,176.787 C374.914,176.055 374.865,175.615 374.361,175.42 L374.361,172.947 L384.494,172.947 L384.494,177.746 z" fill="#008153"/>
    <path d="M389.828,183.065 C389.828,183.163 389.779,184.155 390.674,184.155 C391.569,184.155 391.519,183.163 391.519,183.065 L391.519,176.754 C391.519,176.656 391.569,175.68 390.674,175.68 C389.779,175.68 389.828,176.656 389.828,176.754 z M395.863,182.854 C395.863,186.302 393.748,187.164 390.674,187.164 C387.599,187.164 385.485,186.302 385.485,182.854 L385.485,176.981 C385.485,173.534 387.599,172.671 390.674,172.671 C393.748,172.671 395.863,173.534 395.863,176.981 z" fill="#008153"/>
    <path d="M401.533,183.065 C401.533,183.163 401.484,184.155 402.379,184.155 C403.273,184.155 403.224,183.163 403.224,183.065 L403.224,176.754 C403.224,176.656 403.273,175.68 402.379,175.68 C401.484,175.68 401.533,176.656 401.533,176.754 z M407.567,182.854 C407.567,186.302 405.453,187.164 402.379,187.164 C399.304,187.164 397.189,186.302 397.189,182.854 L397.189,176.981 C397.189,173.534 399.304,172.671 402.379,172.671 C405.453,172.671 407.567,173.534 407.567,176.981 z" fill="#008153"/>
    <path d="M413.715,183.943 L414.057,183.943 C414.999,183.943 415.293,183.602 415.293,182.593 L415.293,177.339 C415.293,176.331 414.999,175.989 414.057,175.989 L413.715,175.989 z M414.837,172.947 C416.025,172.947 417.391,172.964 418.383,173.729 C419.522,174.623 419.636,175.892 419.636,177.226 L419.636,182.447 C419.636,183.814 419.57,184.87 418.514,185.863 C417.521,186.806 416.284,186.888 414.968,186.888 L408.819,186.888 L408.819,184.416 C409.306,184.204 409.356,183.781 409.371,183.309 L409.371,176.526 C409.356,176.039 409.322,175.631 408.819,175.42 L408.819,172.947 z" fill="#008153"/>
    <path d="M432.427,177.16 C432.427,176.542 432.411,175.68 431.566,175.68 C431.013,175.68 430.719,176.086 430.719,176.607 C430.719,176.884 430.752,177.16 430.98,177.388 C431.224,177.649 431.841,177.844 432.199,177.941 C433.24,178.217 434.64,178.592 435.518,179.177 C436.023,179.519 436.397,179.926 436.592,180.512 C436.82,181.113 436.917,181.78 436.917,182.431 L436.917,182.496 C436.917,185.18 435.729,187.164 431.581,187.164 C429.809,187.164 427.938,186.822 426.523,185.701 L426.523,181.959 L430.768,181.959 C430.768,182.788 430.752,183.406 430.898,183.7 C431.045,183.975 431.354,184.155 431.679,184.155 C432.265,184.155 432.525,183.585 432.525,183.081 C432.525,181.65 431.63,181.536 430.426,181.243 C427.791,180.592 426.311,179.958 426.311,176.949 L426.311,176.639 C426.376,175.143 426.619,174.395 427.759,173.534 C428.686,172.833 430.035,172.671 431.337,172.671 C433.224,172.671 434.9,173.045 436.478,174.135 L436.478,177.421 L432.427,177.421 z" fill="#008153"/>
    <path d="M443.918,172.947 L448.96,172.947 L448.96,175.42 C448.375,175.745 448.423,176.265 448.423,176.786 L448.423,182.43 C448.39,183.911 448.276,185.082 447.089,186.123 C446.064,187.017 444.649,187.164 443.397,187.164 C442.144,187.164 440.729,187.017 439.704,186.123 C438.518,185.082 438.403,183.911 438.371,182.43 L438.371,176.786 C438.371,176.265 438.419,175.745 437.898,175.42 L437.898,172.947 L443.186,172.947 L443.186,175.42 C442.665,175.745 442.714,176.265 442.714,176.786 L442.714,183.147 C442.714,183.423 442.778,184.138 443.575,184.138 C444.373,184.138 444.438,183.423 444.438,183.147 L444.438,176.786 C444.422,176.265 444.47,175.745 443.918,175.42 z" fill="#008153"/>
    <path d="M454.992,179.942 L455.398,179.942 C456.683,179.942 456.635,179.21 456.635,177.908 C456.635,176.591 456.683,175.859 455.398,175.859 L454.992,175.859 z M450.648,176.787 C450.648,176.266 450.698,175.745 450.177,175.42 L450.177,172.947 L455.854,172.947 C457.042,172.947 458.636,172.931 459.612,173.679 C461.206,174.9 460.978,177.129 460.978,177.486 L460.978,178.592 C460.978,181.244 460.099,182.886 456.538,182.886 L454.992,182.886 C454.992,183.57 454.943,184.09 455.464,184.416 L455.464,186.888 L450.177,186.888 L450.177,184.416 C450.698,184.09 450.648,183.57 450.648,183.048 z" fill="#008153"/>
    <path d="M466.849,179.942 L467.255,179.942 C468.54,179.942 468.492,179.21 468.492,177.908 C468.492,176.591 468.54,175.859 467.255,175.859 L466.849,175.859 z M462.505,176.787 C462.505,176.266 462.554,175.745 462.034,175.42 L462.034,172.947 L467.71,172.947 C468.899,172.947 470.493,172.931 471.468,173.679 C473.063,174.9 472.835,177.129 472.835,177.486 L472.835,178.592 C472.835,181.244 471.956,182.886 468.394,182.886 L466.849,182.886 C466.849,183.57 466.8,184.09 467.321,184.416 L467.321,186.888 L462.034,186.888 L462.034,184.416 C462.554,184.09 462.505,183.57 462.505,183.048 z" fill="#008153"/>
    <path d="M473.751,186.888 L473.751,184.416 C474.272,184.091 474.224,183.57 474.224,183.049 L474.224,176.787 C474.224,176.266 474.272,175.745 473.751,175.42 L473.751,172.948 L479.039,172.948 L479.039,175.42 C478.519,175.745 478.565,176.266 478.565,176.787 L478.565,183.928 L478.989,183.928 C480.096,183.928 480.079,183.261 480.079,182.382 L480.079,180.121 L483.902,180.121 L483.902,186.888 z" fill="#008153"/>
    <path d="M485.6,176.787 C485.6,176.266 485.649,175.745 485.128,175.42 L485.128,172.948 L490.414,172.948 L490.414,175.42 C489.895,175.745 489.944,176.266 489.944,176.787 L489.944,183.049 C489.944,183.57 489.895,184.091 490.414,184.416 L490.414,186.888 L485.128,186.888 L485.128,184.416 C485.649,184.091 485.6,183.57 485.6,183.049 z" fill="#008153"/>
    <path d="M502.104,181.845 L502.104,186.887 L491.661,186.887 L491.661,184.415 C492.18,184.09 492.133,183.57 492.133,183.048 L492.133,176.786 C492.133,176.265 492.18,175.745 491.661,175.42 L491.661,172.947 L502.104,172.947 L502.104,177.665 L498.102,177.665 L498.102,177.241 C498.102,176.298 497.971,175.907 496.801,175.907 L496.54,175.907 L496.54,178.397 L499.29,178.397 L499.29,181.113 L496.54,181.113 L496.54,183.928 L496.801,183.928 C498.102,183.928 498.084,183.439 498.102,182.301 L498.102,181.845 z" fill="#008153"/>
    <path d="M508.039,178.673 L508.477,178.673 C509.422,178.673 509.713,178.185 509.713,177.209 C509.713,176.314 509.422,175.826 508.477,175.826 L508.039,175.826 z M508.039,183.048 C508.039,183.569 507.99,184.09 508.51,184.415 L508.51,186.887 L503.223,186.887 L503.223,184.415 C503.744,184.09 503.695,183.569 503.695,183.048 L503.695,176.786 C503.695,176.265 503.744,175.745 503.223,175.42 L503.223,172.947 L509.258,172.947 C510.332,172.947 511.682,172.931 512.625,173.501 C513.764,174.167 514.154,175.355 514.154,176.623 C514.154,178.152 513.697,179.486 512.072,179.893 L512.072,179.925 C513.439,180.251 513.894,180.837 513.894,182.252 L513.894,183.048 C513.894,183.52 513.894,184.203 514.432,184.415 L514.432,186.887 L509.764,186.887 C509.584,186.123 509.469,185.472 509.518,183.147 C509.518,182.04 509.404,181.486 508.217,181.454 L508.039,181.454 z" fill="#008153"/>
    <path d="M521.662,177.16 C521.662,176.542 521.646,175.68 520.801,175.68 C520.248,175.68 519.955,176.086 519.955,176.607 C519.955,176.884 519.986,177.16 520.215,177.388 C520.459,177.649 521.076,177.844 521.433,177.941 C522.475,178.217 523.873,178.592 524.754,179.177 C525.258,179.519 525.633,179.926 525.826,180.512 C526.055,181.113 526.152,181.78 526.152,182.431 L526.152,182.496 C526.152,185.18 524.965,187.164 520.816,187.164 C519.043,187.164 517.172,186.822 515.758,185.701 L515.758,181.959 L520.004,181.959 C520.004,182.788 519.986,183.406 520.135,183.7 C520.281,183.975 520.59,184.155 520.914,184.155 C521.5,184.155 521.76,183.585 521.76,183.081 C521.76,181.65 520.865,181.536 519.662,181.243 C517.025,180.592 515.547,179.958 515.547,176.949 L515.547,176.639 C515.611,175.143 515.855,174.395 516.992,173.534 C517.922,172.833 519.271,172.671 520.572,172.671 C522.461,172.671 524.137,173.045 525.713,174.135 L525.713,177.421 L521.662,177.421 z" fill="#008153"/>
    <path d="M395.519,149.51 L386.282,149.51 L386.282,148.827 C386.282,147.461 386.569,144.838 384.449,144.838 C382.651,144.838 382.507,146.527 382.507,147.857 L382.507,161.551 C382.507,161.874 382.651,163.564 384.449,163.564 C386.569,163.564 386.282,160.94 386.282,159.538 L386.282,158.172 L384.627,158.172 L384.627,152.17 L395.519,152.17 L395.519,166.87 C392.499,169.602 387.935,170.213 384.017,170.213 C381.249,170.213 378.086,169.998 375.894,168.164 C373.054,165.756 372.911,162.953 372.911,159.573 L372.911,147.857 C372.911,145.125 373.234,142.465 375.462,140.596 C377.691,138.691 380.747,138.188 383.585,138.188 C387.79,138.188 392.14,139.158 395.519,141.746 z" fill="#008153"/>
    <path d="M408.731,151.451 L409.702,151.451 C411.786,151.451 412.433,150.372 412.433,148.216 C412.433,146.24 411.786,145.161 409.702,145.161 L408.731,145.161 z M408.731,161.119 C408.731,162.27 408.623,163.42 409.773,164.139 L409.773,169.602 L398.091,169.602 L398.091,164.139 C399.242,163.42 399.133,162.27 399.133,161.119 L399.133,147.282 C399.133,146.132 399.242,144.981 398.091,144.263 L398.091,138.799 L411.426,138.799 C413.798,138.799 416.782,138.763 418.867,140.021 C421.382,141.494 422.245,144.119 422.245,146.922 C422.245,150.301 421.239,153.248 417.644,154.146 L417.644,154.219 C420.664,154.937 421.67,156.231 421.67,159.358 L421.67,161.119 C421.67,162.161 421.67,163.672 422.856,164.139 L422.856,169.602 L412.541,169.602 C412.145,167.912 411.893,166.475 412.002,161.335 C412.002,158.891 411.75,157.669 409.127,157.597 L408.731,157.597 z" fill="#008153"/>
    <path d="M448.54,158.46 L448.54,169.602 L425.464,169.602 L425.464,164.139 C426.614,163.42 426.507,162.27 426.507,161.12 L426.507,147.282 C426.507,146.132 426.614,144.981 425.464,144.263 L425.464,138.799 L448.54,138.799 L448.54,149.222 L439.698,149.222 L439.698,148.288 C439.698,146.204 439.41,145.34 436.822,145.34 L436.247,145.34 L436.247,150.84 L442.321,150.84 L442.321,156.842 L436.247,156.842 L436.247,163.061 L436.822,163.061 C439.698,163.061 439.662,161.982 439.698,159.467 L439.698,158.46 z" fill="#008153"/>
    <path d="M473.962,158.46 L473.962,169.602 L450.886,169.602 L450.886,164.139 C452.036,163.42 451.929,162.27 451.929,161.12 L451.929,147.282 C451.929,146.132 452.036,144.981 450.886,144.263 L450.886,138.799 L473.962,138.799 L473.962,149.222 L465.119,149.222 L465.119,148.288 C465.119,146.204 464.832,145.34 462.244,145.34 L461.669,145.34 L461.669,150.84 L467.743,150.84 L467.743,156.842 L461.669,156.842 L461.669,163.061 L462.244,163.061 C465.119,163.061 465.084,161.982 465.119,159.467 L465.119,158.46 z" fill="#008153"/>
    <path d="M492.26,152.709 L492.33,152.709 L492.33,147.282 C492.33,146.132 492.44,144.981 491.289,144.263 L491.289,138.799 L501.137,138.799 L501.137,144.263 C499.987,144.981 500.094,146.132 500.094,147.282 L500.094,169.602 L490.785,169.602 L485.071,155.765 L484.999,155.765 L484.999,161.12 C484.999,162.27 484.891,163.42 486.041,164.139 L486.041,169.602 L476.481,169.602 L476.481,164.139 C477.63,163.42 477.524,162.27 477.524,161.12 L477.524,147.282 C477.524,146.132 477.63,144.981 476.481,144.263 L476.481,138.799 L486.905,138.799 z" fill="#008153"/>
    <path d="M517.324,148.108 C517.324,146.742 517.289,144.837 515.418,144.837 C514.199,144.837 513.551,145.736 513.551,146.886 C513.551,147.497 513.623,148.108 514.125,148.611 C514.666,149.186 516.031,149.618 516.82,149.833 C519.121,150.444 522.211,151.271 524.152,152.566 C525.267,153.32 526.094,154.218 526.525,155.512 C527.027,156.842 527.244,158.316 527.244,159.754 L527.244,159.897 C527.244,165.828 524.619,170.213 515.457,170.213 C511.537,170.213 507.404,169.458 504.277,166.978 L504.277,158.711 L513.658,158.711 C513.658,160.544 513.623,161.91 513.945,162.557 C514.267,163.168 514.951,163.564 515.672,163.564 C516.965,163.564 517.541,162.305 517.541,161.191 C517.541,158.028 515.562,157.777 512.902,157.129 C507.08,155.691 503.808,154.291 503.808,147.641 L503.808,146.958 C503.955,143.651 504.492,141.998 507.008,140.093 C509.056,138.547 512.041,138.188 514.916,138.188 C519.086,138.188 522.787,139.014 526.275,141.422 L526.275,148.683 L517.324,148.683 z" fill="#008153"/>
    <path d="M374.782,191.359 C374.427,191.359 374.141,191.069 374.141,190.715 C374.141,190.36 374.427,190.073 374.782,190.073 L525.461,190.073 C525.814,190.073 526.101,190.36 526.101,190.715 C526.101,191.069 525.814,191.359 525.461,191.359 z" fill="#008153"/>
  </g>
</svg>
