<?xml version="1.0" encoding="UTF-8"?>
<!DOCTYPE svg PUBLIC "-//W3C//DTD SVG 1.1//EN" "http://www.w3.org/Graphics/SVG/1.1/DTD/svg11.dtd">
<svg version="1.1" xmlns="http://www.w3.org/2000/svg" xmlns:xlink="http://www.w3.org/1999/xlink" x="0" y="0" width="228.252" height="58.285" viewBox="0, 0, 228.252, 58.285">
  <g id="Layer_1" transform="translate(-103.432, -410.226)">
    <path d="M179.821,425.332 C178.934,424.189 177.489,423.551 176.051,423.551 C172.55,423.551 170.241,426.348 170.241,429.887 C170.241,433.172 172.419,435.969 176.051,435.969 C177.835,435.969 179.204,435.17 180.126,433.875 L181.911,435.219 C181.446,435.855 179.575,437.947 176.007,437.947 C171.055,437.947 167.997,433.807 167.997,429.887 C167.997,425.043 171.321,421.564 176.118,421.564 C178.167,421.564 180.323,422.338 181.579,423.99 z" fill="#B2B3B5"/>
    <path d="M186.429,428.83 L189.199,428.83 C190.87,428.83 192.546,428.434 192.546,426.324 C192.546,424.213 190.87,423.814 189.199,423.814 L186.429,423.814 z M184.31,421.959 L189.792,421.959 C193.777,421.959 194.79,424.359 194.79,426.324 C194.79,428.305 193.314,430.174 190.958,430.441 L195.384,437.551 L192.742,437.551 L188.779,430.678 L186.429,430.678 L186.429,437.551 L184.31,437.551 z" fill="#B2B3B5"/>
    <path d="M210.724,429.761 C210.724,426.347 208.419,423.55 204.851,423.55 C201.283,423.55 198.97,426.347 198.97,429.761 C198.97,433.171 201.283,435.968 204.851,435.968 C208.419,435.968 210.724,433.171 210.724,429.761 M196.724,429.761 C196.724,425.132 200.095,421.564 204.851,421.564 C209.605,421.564 212.972,425.132 212.972,429.761 C212.972,434.378 209.605,437.947 204.851,437.947 C200.095,437.947 196.724,434.378 196.724,429.761" fill="#B2B3B5"/>
    <path d="M216.032,421.959 L225.833,421.959 L225.833,423.945 L218.149,423.945 L218.149,428.83 L225.305,428.83 L225.305,430.817 L218.149,430.817 L218.149,437.551 L216.032,437.551 z" fill="#B2B3B5"/>
    <path d="M232.425,423.945 L227.404,423.945 L227.404,421.959 L239.558,421.959 L239.558,423.945 L234.54,423.945 L234.54,437.55 L232.425,437.55 z" fill="#B2B3B5"/>
    <path d="M243.601,427.377 L241.88,427.377 L241.88,421.959 L243.601,421.959 z" fill="#B2B3B5"/>
    <path d="M246.757,434.296 C247.497,435.434 248.802,435.969 250.056,435.969 C251.441,435.969 253.163,435.088 253.163,433.366 C253.163,429.779 245.476,432.003 245.476,425.93 C245.476,424.095 247.021,421.564 250.759,421.564 C252.454,421.564 254.087,421.917 255.249,423.353 L253.532,424.912 C253.005,424.095 251.968,423.551 250.759,423.551 C248.427,423.551 247.724,424.963 247.724,425.93 C247.724,429.867 255.406,427.513 255.406,433.127 C255.406,436.142 252.982,437.947 249.987,437.947 C247.987,437.947 246.072,437.263 245.017,435.791 z" fill="#B2B3B5"/>
    <path d="M177.64,451.068 L174.734,443.92 L174.687,443.92 L171.736,451.068 z M173.853,441.189 L175.767,441.189 L182.439,456.773 L179.972,456.773 L178.413,452.923 L170.99,452.923 L169.449,456.773 L166.982,456.773 z" fill="#B2B3B5"/>
    <path d="M194.761,444.556 C193.876,443.413 192.425,442.771 190.993,442.771 C187.495,442.771 185.183,445.57 185.183,449.115 C185.183,452.392 187.361,455.191 190.993,455.191 C192.777,455.191 194.142,454.4 195.068,453.099 L196.853,454.441 C196.386,455.081 194.517,457.167 190.948,457.167 C185.995,457.167 182.933,453.035 182.933,449.115 C182.933,444.265 186.261,440.794 191.058,440.794 C193.111,440.794 195.265,441.564 196.519,443.216 z" fill="#B2B3B5"/>
    <path d="M209.808,444.556 C208.923,443.413 207.472,442.771 206.046,442.771 C202.542,442.771 200.234,445.57 200.234,449.115 C200.234,452.392 202.409,455.191 206.046,455.191 C207.828,455.191 209.193,454.4 210.119,453.099 L211.901,454.441 C211.437,455.081 209.568,457.167 205.995,457.167 C201.044,457.167 197.98,453.035 197.98,449.115 C197.98,444.265 201.312,440.794 206.107,440.794 C208.158,440.794 210.318,441.564 211.568,443.216 z" fill="#B2B3B5"/>
    <path d="M227.028,448.982 C227.028,445.57 224.715,442.771 221.155,442.771 C217.585,442.771 215.276,445.57 215.276,448.982 C215.276,452.392 217.585,455.191 221.155,455.191 C224.715,455.191 227.028,452.392 227.028,448.982 M213.026,448.982 C213.026,444.359 216.399,440.794 221.155,440.794 C225.903,440.794 229.278,444.359 229.278,448.982 C229.278,453.599 225.903,457.168 221.155,457.168 C216.399,457.168 213.026,453.599 213.026,448.982" fill="#B2B3B5"/>
    <path d="M234.208,441.189 L234.208,450.74 C234.208,452.677 235.181,455.191 238.134,455.191 C241.079,455.191 242.048,452.677 242.048,450.74 L242.048,441.189 L244.163,441.189 L244.163,451.068 C244.163,454.687 241.544,457.168 238.134,457.168 C234.718,457.168 232.097,454.687 232.097,451.068 L232.097,441.189 z" fill="#B2B3B5"/>
    <path d="M247.946,441.189 L250.719,441.189 L259.307,454.003 L259.35,454.003 L259.35,441.189 L261.46,441.189 L261.46,456.773 L258.78,456.773 L250.106,443.964 L250.063,443.964 L250.063,456.773 L247.946,456.773 z" fill="#B2B3B5"/>
    <path d="M268.714,443.168 L263.696,443.168 L263.696,441.189 L275.851,441.189 L275.851,443.168 L270.831,443.168 L270.831,456.773 L268.714,456.773 z" fill="#B2B3B5"/>
    <path d="M285.36,451.068 L282.458,443.92 L282.407,443.92 L279.454,451.068 z M281.573,441.189 L283.487,441.189 L290.159,456.773 L287.696,456.773 L286.133,452.923 L278.714,452.923 L277.169,456.773 L274.706,456.773 z" fill="#B2B3B5"/>
    <path d="M292.268,441.189 L295.039,441.189 L303.63,454.003 L303.675,454.003 L303.675,441.189 L305.785,441.189 L305.785,456.773 L303.103,456.773 L294.429,443.964 L294.384,443.964 L294.384,456.773 L292.268,456.773 z" fill="#B2B3B5"/>
    <path d="M313.034,443.168 L308.018,443.168 L308.018,441.189 L320.171,441.189 L320.171,443.168 L315.153,443.168 L315.153,456.773 L313.034,456.773 z" fill="#B2B3B5"/>
    <path d="M323.036,453.519 C323.778,454.664 325.079,455.191 326.335,455.191 C327.722,455.191 329.444,454.31 329.444,452.589 C329.444,448.999 321.753,451.225 321.753,445.15 C321.753,443.326 323.294,440.794 327.036,440.794 C328.733,440.794 330.366,441.142 331.53,442.576 L329.813,444.134 C329.286,443.326 328.249,442.771 327.036,442.771 C324.7,442.771 324.003,444.185 324.003,445.15 C324.003,449.089 331.684,446.736 331.684,452.351 C331.684,455.367 329.263,457.167 326.265,457.167 C324.265,457.167 322.35,456.486 321.296,455.011 z" fill="#B2B3B5"/>
    <path d="M143.733,430.115 L127.708,439.371 L143.733,448.625 L143.733,460.876 L117.096,445.494 L117.096,433.244 L143.733,417.863 z M132.571,410.226 C116.485,410.226 103.432,423.275 103.432,439.371 C103.432,455.469 116.485,468.511 132.571,468.511 C148.671,468.511 161.721,455.469 161.721,439.371 C161.721,423.275 148.671,410.226 132.571,410.226" fill="#B2B3B5"/>
  </g>
</svg>
